<svg width="298" height="226" viewBox="0 0 298 226" fill="none" xmlns="http://www.w3.org/2000/svg">
<path d="M2.5 130H54L44.5 138H11.5L2.5 130Z" fill="#E6E6E6"/>
<path d="M2.5 130H54L44.5 138H11.5L2.5 130Z" fill="#171717"/>
<path d="M10 174H46L53 178L46 182H10L3.5 178L10 174Z" fill="#E6E6E6"/>
<path d="M10 174H46L53 178L46 182H10L3.5 178L10 174Z" fill="#171717"/>
<path d="M2 177L2 132L10 139.5L10 172L2 177Z" fill="#E6E6E6"/>
<path d="M2 177L2 132L10 139.5L10 172L2 177Z" fill="#171717"/>
<path d="M54 132.5L54 177L46 172L46 139.5L54 132.5Z" fill="#E6E6E6"/>
<path d="M52 226L4 226L11.5 218L44.5 218L52 226Z" fill="#E6E6E6"/>
<path d="M52 226L4 226L11.5 218L44.5 218L52 226Z" fill="#171717"/>
<path d="M54 179.5L54 225L46 217L46 184L54 179.5Z" fill="#E6E6E6"/>
<path d="M54 179.5L54 225L46 217L46 184L54 179.5Z" fill="#171717"/>
<path d="M2 225L2.00001 179L10 184L10 216.5L2 225Z" fill="#E6E6E6"/>
<path d="M63.5 130H115L105.5 138H72.5L63.5 130Z" fill="#E6E6E6"/>
<path d="M63.5 130H115L105.5 138H72.5L63.5 130Z" fill="#171717"/>
<path d="M71 174H107L114 178L107 182H71L64.5 178L71 174Z" fill="#E6E6E6"/>
<path d="M71 174H107L114 178L107 182H71L64.5 178L71 174Z" fill="#171717"/>
<path d="M63 177L63 132L71 139.5L71 172L63 177Z" fill="#E6E6E6"/>
<path d="M63 177L63 132L71 139.5L71 172L63 177Z" fill="#171717"/>
<path d="M115 132.5L115 177L107 172L107 139.5L115 132.5Z" fill="#E6E6E6"/>
<path d="M113 226L65 226L72.5 218L105.5 218L113 226Z" fill="#E6E6E6"/>
<path d="M113 226L65 226L72.5 218L105.5 218L113 226Z" fill="#171717"/>
<path d="M115 179.5L115 225L107 217L107 184L115 179.5Z" fill="#E6E6E6"/>
<path d="M115 179.5L115 225L107 217L107 184L115 179.5Z" fill="#171717"/>
<path d="M63 225L63 179L71 184L71 216.5L63 225Z" fill="#E6E6E6"/>
<path d="M63 225L63 179L71 184L71 216.5L63 225Z" fill="#171717"/>
<path d="M124.5 130H176L166.5 138H133.5L124.5 130Z" fill="#E6E6E6"/>
<path d="M124.5 130H176L166.5 138H133.5L124.5 130Z" fill="#171717"/>
<path d="M132 174H168L175 178L168 182H132L125.5 178L132 174Z" fill="#E6E6E6"/>
<path d="M124 177L124 132L132 139.5L132 172L124 177Z" fill="#E6E6E6"/>
<path d="M176 132.5L176 177L168 172L168 139.5L176 132.5Z" fill="#E6E6E6"/>
<path d="M176 132.5L176 177L168 172L168 139.5L176 132.5Z" fill="#171717"/>
<path d="M174 226L126 226L133.5 218L166.5 218L174 226Z" fill="#E6E6E6"/>
<path d="M176 179.5L176 225L168 217L168 184L176 179.5Z" fill="#E6E6E6"/>
<path d="M176 179.5L176 225L168 217L168 184L176 179.5Z" fill="#171717"/>
<path d="M124 225L124 179L132 184L132 216.5L124 225Z" fill="#E6E6E6"/>
<path d="M184.5 130H236L226.5 138H193.5L184.5 130Z" fill="#E6E6E6"/>
<path d="M184.5 130H236L226.5 138H193.5L184.5 130Z" fill="#171717"/>
<path d="M192 174H228L235 178L228 182H192L185.5 178L192 174Z" fill="#E6E6E6"/>
<path d="M192 174H228L235 178L228 182H192L185.5 178L192 174Z" fill="#171717"/>
<path d="M184 177L184 132L192 139.5L192 172L184 177Z" fill="#E6E6E6"/>
<path d="M184 177L184 132L192 139.5L192 172L184 177Z" fill="#171717"/>
<path d="M236 132.5L236 177L228 172L228 139.5L236 132.5Z" fill="#E6E6E6"/>
<path d="M236 132.5L236 177L228 172L228 139.5L236 132.5Z" fill="#171717"/>
<path d="M234 226L186 226L193.5 218L226.5 218L234 226Z" fill="#E6E6E6"/>
<path d="M234 226L186 226L193.5 218L226.5 218L234 226Z" fill="#171717"/>
<path d="M236 179.5L236 225L228 217L228 184L236 179.5Z" fill="#E6E6E6"/>
<path d="M236 179.5L236 225L228 217L228 184L236 179.5Z" fill="#171717"/>
<path d="M184 225L184 179L192 184L192 216.5L184 225Z" fill="#E6E6E6"/>
<path d="M184 225L184 179L192 184L192 216.5L184 225Z" fill="#171717"/>
<path d="M244.5 130H296L286.5 138H253.5L244.5 130Z" fill="#E6E6E6"/>
<path d="M244.5 130H296L286.5 138H253.5L244.5 130Z" fill="#171717"/>
<path d="M252 174H288L295 178L288 182H252L245.5 178L252 174Z" fill="#E6E6E6"/>
<path d="M252 174H288L295 178L288 182H252L245.5 178L252 174Z" fill="#171717"/>
<path d="M244 177L244 132L252 139.5L252 172L244 177Z" fill="#E6E6E6"/>
<path d="M244 177L244 132L252 139.5L252 172L244 177Z" fill="#171717"/>
<path d="M296 132.5L296 177L288 172L288 139.5L296 132.5Z" fill="#E6E6E6"/>
<path d="M296 132.5L296 177L288 172L288 139.5L296 132.5Z" fill="#171717"/>
<path d="M294 226L246 226L253.5 218L286.5 218L294 226Z" fill="#E6E6E6"/>
<path d="M294 226L246 226L253.5 218L286.5 218L294 226Z" fill="#171717"/>
<path d="M296 179.5L296 225L288 217L288 184L296 179.5Z" fill="#E6E6E6"/>
<path d="M296 179.5L296 225L288 217L288 184L296 179.5Z" fill="#171717"/>
<path d="M244 225L244 179L252 184L252 216.5L244 225Z" fill="#E6E6E6"/>
<path d="M0.5 0H52L42.5 8H9.5L0.5 0Z" fill="#E6E6E6"/>
<path d="M0.5 0H52L42.5 8H9.5L0.5 0Z" fill="#171717"/>
<path d="M8 44H44L51 48L44 52H8L1.5 48L8 44Z" fill="#E6E6E6"/>
<path d="M0 47L-1.83588e-06 2L8 9.5L8 42L0 47Z" fill="#E6E6E6"/>
<path d="M0 47L-1.83588e-06 2L8 9.5L8 42L0 47Z" fill="#171717"/>
<path d="M52 2.5L52 47L44 42L44 9.5L52 2.5Z" fill="#E6E6E6"/>
<path d="M52 2.5L52 47L44 42L44 9.5L52 2.5Z" fill="#171717"/>
<path d="M50 96L2 96L9.5 88L42.5 88L50 96Z" fill="#E6E6E6"/>
<path d="M50 96L2 96L9.5 88L42.5 88L50 96Z" fill="#171717"/>
<path d="M52 49.5L52 95L44 87L44 54L52 49.5Z" fill="#E6E6E6"/>
<path d="M52 49.5L52 95L44 87L44 54L52 49.5Z" fill="#171717"/>
<path d="M0 95L6.03217e-06 49L8.00001 54L8 86.5L0 95Z" fill="#E6E6E6"/>
<path d="M0 95L6.03217e-06 49L8.00001 54L8 86.5L0 95Z" fill="#171717"/>
<path d="M64.5 0H116L106.5 8H73.5L64.5 0Z" fill="#E6E6E6"/>
<path d="M72 44H108L115 48L108 52H72L65.5 48L72 44Z" fill="#E6E6E6"/>
<path d="M64 47L64 2L72 9.5L72 42L64 47Z" fill="#E6E6E6"/>
<path d="M116 2.5L116 47L108 42L108 9.5L116 2.5Z" fill="#E6E6E6"/>
<path d="M116 2.5L116 47L108 42L108 9.5L116 2.5Z" fill="#171717"/>
<path d="M114 96L66 96L73.5 88L106.5 88L114 96Z" fill="#E6E6E6"/>
<path d="M116 49.5L116 95L108 87L108 54L116 49.5Z" fill="#E6E6E6"/>
<path d="M116 49.5L116 95L108 87L108 54L116 49.5Z" fill="#171717"/>
<path d="M64 95L64 49L72 54L72 86.5L64 95Z" fill="#E6E6E6"/>
<path d="M124.5 0H176L166.5 8H133.5L124.5 0Z" fill="#E6E6E6"/>
<path d="M124.5 0H176L166.5 8H133.5L124.5 0Z" fill="#171717"/>
<path d="M132 44H168L175 48L168 52H132L125.5 48L132 44Z" fill="#E6E6E6"/>
<path d="M132 44H168L175 48L168 52H132L125.5 48L132 44Z" fill="#171717"/>
<path d="M124 47L124 2L132 9.5L132 42L124 47Z" fill="#E6E6E6"/>
<path d="M176 2.5L176 47L168 42L168 9.5L176 2.5Z" fill="#E6E6E6"/>
<path d="M176 2.5L176 47L168 42L168 9.5L176 2.5Z" fill="#171717"/>
<path d="M174 96L126 96L133.5 88L166.5 88L174 96Z" fill="#E6E6E6"/>
<path d="M174 96L126 96L133.5 88L166.5 88L174 96Z" fill="#171717"/>
<path d="M176 49.5L176 95L168 87L168 54L176 49.5Z" fill="#E6E6E6"/>
<path d="M124 95L124 49L132 54L132 86.5L124 95Z" fill="#E6E6E6"/>
<path d="M124 95L124 49L132 54L132 86.5L124 95Z" fill="#171717"/>
<path d="M184.5 0H236L226.5 8H193.5L184.5 0Z" fill="#E6E6E6"/>
<path d="M184.5 0H236L226.5 8H193.5L184.5 0Z" fill="#171717"/>
<path d="M192 44H228L235 48L228 52H192L185.5 48L192 44Z" fill="#E6E6E6"/>
<path d="M192 44H228L235 48L228 52H192L185.5 48L192 44Z" fill="#171717"/>
<path d="M184 47L184 2L192 9.5L192 42L184 47Z" fill="#E6E6E6"/>
<path d="M236 2.5L236 47L228 42L228 9.5L236 2.5Z" fill="#E6E6E6"/>
<path d="M236 2.5L236 47L228 42L228 9.5L236 2.5Z" fill="#171717"/>
<path d="M234 96L186 96L193.5 88L226.5 88L234 96Z" fill="#E6E6E6"/>
<path d="M234 96L186 96L193.5 88L226.5 88L234 96Z" fill="#171717"/>
<path d="M236 49.5L236 95L228 87L228 54L236 49.5Z" fill="#E6E6E6"/>
<path d="M236 49.5L236 95L228 87L228 54L236 49.5Z" fill="#171717"/>
<path d="M184 95L184 49L192 54L192 86.5L184 95Z" fill="#E6E6E6"/>
<path d="M246.5 1H298L288.5 9H255.5L246.5 1Z" fill="#E6E6E6"/>
<path d="M254 45H290L297 49L290 53H254L247.5 49L254 45Z" fill="#E6E6E6"/>
<path d="M254 45H290L297 49L290 53H254L247.5 49L254 45Z" fill="#171717"/>
<path d="M246 48L246 3L254 10.5L254 43L246 48Z" fill="#E6E6E6"/>
<path d="M246 48L246 3L254 10.5L254 43L246 48Z" fill="#171717"/>
<path d="M298 3.5L298 48L290 43L290 10.5L298 3.5Z" fill="#E6E6E6"/>
<path d="M298 3.5L298 48L290 43L290 10.5L298 3.5Z" fill="#171717"/>
<path d="M296 97L248 97L255.5 89L288.5 89L296 97Z" fill="#E6E6E6"/>
<path d="M298 50.5L298 96L290 88L290 55L298 50.5Z" fill="#E6E6E6"/>
<path d="M298 50.5L298 96L290 88L290 55L298 50.5Z" fill="#171717"/>
<path d="M246 96L246 50L254 55L254 87.5L246 96Z" fill="#E6E6E6"/>
</svg>
