<?xml version="1.0" encoding="UTF-8" standalone="no"?>
<!-- Created with Inkscape (http://www.inkscape.org/) -->

<svg
   width="1872"
   height="1404"
   viewBox="0 0 1872 1404"
   version="1.1"
   id="svg1"
   inkscape:version="1.4 (86a8ad7, 2024-10-11)"
   sodipodi:docname="Hello.svg"
   xmlns:inkscape="http://www.inkscape.org/namespaces/inkscape"
   xmlns:sodipodi="http://sodipodi.sourceforge.net/DTD/sodipodi-0.dtd"
   xmlns="http://www.w3.org/2000/svg"
   xmlns:svg="http://www.w3.org/2000/svg">
  <sodipodi:namedview
     id="namedview1"
     pagecolor="#ffffff"
     bordercolor="#000000"
     borderopacity="0.25"
     inkscape:showpageshadow="2"
     inkscape:pageopacity="0.0"
     inkscape:pagecheckerboard="0"
     inkscape:deskcolor="#d1d1d1"
     inkscape:document-units="px"
     inkscape:zoom="1.4378367"
     inkscape:cx="867.97061"
     inkscape:cy="585.25422"
     inkscape:window-width="1920"
     inkscape:window-height="1009"
     inkscape:window-x="1912"
     inkscape:window-y="-8"
     inkscape:window-maximized="1"
     inkscape:current-layer="layer1" />
  <defs
     id="defs1">
    <rect
       x="676.01557"
       y="592.55686"
       width="879.58568"
       height="411.59979"
       id="rect1" />
  </defs>
  <g
     inkscape:label="Layer 1"
     inkscape:groupmode="layer"
     id="layer1">
    <g
       id="g11">
      <path
         d="m 1202.248,642.72461 a 0.87619613,0.87886421 0 0 0 -0.1308,0.0547 0.87619613,0.87886421 0 0 0 -0.1406,-0.0117 l -22.6133,7.40039 a 0.87628375,0.87895209 0 0 0 -0.3574,0.22461 l -14.7579,15.28125 a 0.87628375,0.87895209 0 0 0 -0.1992,0.32812 l -7.6172,22.44141 a 0.87628375,0.87895209 0 0 0 -0.047,0.2832 v 15.04102 a 0.87628375,0.87895209 0 0 0 0.047,0.28125 l 7.6172,22.5625 a 0.87628375,0.87895209 0 0 0 0.2051,0.33398 l 14.7578,15.04297 a 0.87628375,0.87895209 0 0 0 0.3477,0.2168 l 22.6133,7.52148 a 0.87628375,0.87895209 0 0 0 0.2753,0.043 h 14.9961 a 0.87628375,0.87895209 0 0 0 0.2774,-0.0449 l 22.375,-7.51953 a 0.87628375,0.87895209 0 0 0 0.3359,-0.20703 l 15.2344,-15.04297 a 0.87628375,0.87895209 0 0 0 0.2168,-0.35156 l 7.3789,-22.5625 a 0.87628375,0.87895209 0 0 0 0.043,-0.27344 v -15.04102 a 0.87628375,0.87895209 0 0 0 -0.043,-0.27539 l -7.3789,-22.4414 a 0.87628375,0.87895209 0 0 0 -0.2129,-0.34766 l -15.2324,-15.2793 a 0.87628375,0.87895209 0 0 0 -0.3457,-0.21289 l -22.375,-7.40234 a 0.87628375,0.87895209 0 0 0 -0.2735,-0.043 z m 0.2032,1.75781 h 14.5879 l 14.6757,7.24414 7.1368,7.38867 7.5058,22.11719 v 29.79297 l -7.5058,22.35156 -7.1348,7.27344 -14.6797,7.36133 h -14.582 l -14.6875,-7.36524 -7.3653,-7.27148 -7.2695,-22.3457 v -29.80078 l 7.2695,-22.11133 7.3672,-7.38867 z m -11.6563,3.79492 -3.9297,1.9375 a 0.87628375,0.87895209 0 0 0 -0.2324,0.16797 l -7.6172,7.64063 a 0.87628375,0.87895209 0 0 0 -0.2129,0.3457 l -7.3789,22.44336 a 0.87628375,0.87895209 0 0 0 -0.043,0.27344 v 30.08398 a 0.87628375,0.87895209 0 0 0 0.043,0.27149 l 7.3789,22.68164 a 0.87628375,0.87895209 0 0 0 0.2188,0.35351 l 7.6172,7.52149 a 0.87628375,0.87895209 0 0 0 0.2226,0.1582 l 4.0879,2.05078 -10.8379,-3.60351 -14.4668,-14.7461 -7.5078,-22.23437 v -14.75 l 7.5078,-22.11914 14.4688,-14.98243 z m 38.1524,0.12305 10.1972,3.37305 14.9395,14.98437 7.2695,22.10938 v 14.75976 l -7.2676,22.22657 -14.9394,14.74804 -10.3574,3.48242 3.8418,-1.92773 a 0.87628375,0.87895209 0 0 0 0.2324,-0.16797 l 7.3789,-7.52148 a 0.87628375,0.87895209 0 0 0 0.2051,-0.33594 l 7.6172,-22.68164 a 0.87628375,0.87895209 0 0 0 0.047,-0.2793 v -30.08398 a 0.87628375,0.87895209 0 0 0 -0.047,-0.28321 l -7.6172,-22.4414 a 0.87628375,0.87895209 0 0 0 -0.1993,-0.32813 l -7.3789,-7.64062 a 0.87628375,0.87895209 0 0 0 -0.2441,-0.17774 z m 18.5547,17.04688 a 0.87619613,0.87886421 0 0 0 -0.67,0.0566 0.87619613,0.87886421 0 0 0 -0.3769,1.18359 l 7.5195,14.61328 v 29.66016 l -7.5234,14.97265 a 0.87619613,0.87886421 0 0 0 0.3886,1.18164 0.87619613,0.87886421 0 0 0 0.668,0.0488 0.87619613,0.87886421 0 0 0 0.5098,-0.43945 l 7.6152,-15.16016 a 0.87628375,0.87895209 0 0 0 0.096,-0.39453 v -30.08398 a 0.87628375,0.87895209 0 0 0 -0.098,-0.40235 l -7.6172,-14.80273 a 0.87619613,0.87886421 0 0 0 -0.5117,-0.43359 z m -75.5215,0.004 a 0.87619613,0.87886421 0 0 0 -0.5078,0.43945 l -7.3789,14.80274 a 0.87628375,0.87895209 0 0 0 -0.092,0.39258 v 30.08398 a 0.87628375,0.87895209 0 0 0 0.088,0.38477 l 7.379,15.16015 a 0.87619613,0.87886421 0 0 0 0.5039,0.44532 0.87619613,0.87886421 0 0 0 0.6679,-0.041 0.87619613,0.87886421 0 0 0 0.4043,-1.17578 l -7.291,-14.97656 v -29.67188 l 7.2871,-14.61719 a 0.87619613,0.87886421 0 0 0 -0.3926,-1.17968 0.87619613,0.87886421 0 0 0 -0.6679,-0.0469 z"
         style="baseline-shift:baseline;display:inline;overflow:visible;vector-effect:none;enable-background:accumulate;stop-color:#000000;stop-opacity:1"
         id="path6" />
      <path
         style="fill:none;stroke:#000000;stroke-width:1.0"
         d="M 1181.813188,649.366254 l -16.389801,16.389801 c -2.606044,2.606044 0.918940,9.771178 3.524984,7.165135 l 0.637313,-0.637313 c 1.756294,-1.756294 4.868631,5.821487 3.112337,7.577781 l -0.441220,0.441220 c -1.168000,1.168000 -1.168000,11.858118 0.000000,10.690118 l 0.000000,0.000000 c 1.168000,-1.168000 -6.210900,-4.479218 -7.378900,-3.311218 l -0.000050,0.000050 c -1.168067,1.168067 -7.193971,-3.496147 -6.025905,-4.664214 l 1.049908,-1.049908 c 1.168067,-1.168067 -1.473136,12.163255 -2.641203,13.331321 l -0.000000,0.000000 c -1.168067,1.168067 6.449133,4.240985 7.617200,3.072918 l 0.000050,-0.000050 c 1.168000,-1.168000 8.546900,2.143218 7.378900,3.311218 l -0.180673,0.180673 c -0.927102,0.927102 -0.450895,11.141013 0.476208,10.213911 l -0.000000,0.000000 c 0.927102,-0.927102 -6.566659,-4.123459 -7.493761,-3.196357 l -0.365640,0.365640 c -0.921510,0.921510 -7.792744,-2.897374 -6.871234,-3.818885 l -0.000000,0.000000 c 0.921510,-0.921510 3.620011,7.070107 2.698501,7.991617 l -0.035462,0.035462 c -0.874722,0.874722 6.328089,4.362029 7.202811,3.487308 l -0.000000,0.000000 c 0.874722,-0.874722 4.374955,6.315164 3.500233,7.189885 l -0.000220,0.000220 c -0.875014,0.875014 5.698855,4.991263 6.573870,4.116249 l 0.114120,-0.114120 c 0.826950,-0.826950 4.204398,6.485720 3.377448,7.312671 l 0.000000,-0.000000 c -0.826950,0.826950 4.551901,6.138217 5.378852,5.311267 l 0.000234,-0.000234 c 0.827263,-0.827263 7.780413,2.909705 6.953150,3.736968 l -1.137071,1.137071 c -0.926646,0.926646 -8.948568,-1.741550 -8.021922,-2.668196 l 0.074578,-0.074578 c 0.827209,-0.827209 -6.170744,-4.519374 -6.997953,-3.692165 l -0.000022,0.000022 c -0.827179,0.827179 -6.121090,-4.569028 -5.293911,-5.396207 l 0.000022,-0.000022 c 0.827149,-0.827149 -4.466806,-6.223312 -5.293956,-5.396162 l -0.000000,-0.000000 c -0.827149,0.827149 -4.594961,-6.095157 -3.767812,-6.922307 l 0.071141,-0.071141 c 0.922004,-0.922004 12.883884,-2.193765 11.961880,-1.271761 l -0.699121,0.699121 M 1192.452141,649.417420 l 4.372531,-4.372531 c 1.171856,-1.171856 13.303336,-2.613218 12.131480,-1.441361 l -0.104406,0.104406 c -1.032649,1.032649 9.086303,1.603815 10.118952,0.571167 l -0.000000,-0.000000 c 1.032649,-1.032649 9.065314,1.624804 8.032665,2.657453 l -1.028677,1.028677 c -0.828349,0.828349 6.117058,4.573060 6.945407,3.744711 l 0.000228,-0.000228 c 0.828045,-0.828045 6.079964,4.610154 5.251920,5.438199 l 0.000000,0.000000 c -0.828045,0.828045 2.510375,8.179743 3.338420,7.351699 l 0.110075,-0.110075 c 0.868725,-0.868725 7.563387,3.126731 6.694662,3.995456 l 0.000000,0.000000 c -0.868725,0.868725 2.763189,7.926930 3.631914,7.058205 l 0.000034,-0.000034 c 0.868770,-0.868770 8.008380,2.681738 7.139610,3.550508 l -0.042906,0.042906 c -0.925978,0.925978 1.719181,8.970937 2.645159,8.044959 l 0.000031,-0.000031 c 0.926020,-0.926020 -5.728935,-4.961183 -6.654955,-4.035163 l -0.367994,0.367994 c -0.922255,0.922255 -8.589957,-2.100162 -7.667702,-3.022417 l 0.000182,-0.000182 c 0.922012,-0.922012 -1.786989,-8.903129 -2.709001,-7.981118 l 0.000000,-0.000000 c -0.922012,0.922012 11.184133,-0.494015 12.106145,-1.416026 l 0.076664,-0.076664 c 0.827641,-0.827641 -3.007814,-7.682304 -3.835455,-6.854663 l 0.000000,-0.000000 c -0.827641,0.827641 -6.164685,-4.525433 -5.337044,-5.353074 l 0.000101,-0.000101 c 0.827775,-0.827775 -4.509068,-6.181050 -5.336843,-5.353275 l -0.000101,0.000101 c -0.827909,0.827909 -7.750686,-2.939432 -6.922777,-3.767342 l 0.770053,-0.770053 M 1179.251240,662.618320 l -2.749586,2.749586 M 1248.111500,689.969125 l -0.877050,0.877050 c -1.169400,1.169400 6.447800,4.242318 7.617200,3.072918 l 0.001150,-0.001150 c 1.168000,-1.168000 8.544700,2.145418 7.376700,3.313418 l -0.000000,0.000000 c -1.168000,1.168000 -3.680027,14.370145 -2.512027,13.202145 l 0.986967,-0.986967 c 1.169467,-1.169467 -4.683273,-6.006845 -5.852740,-4.837379 l -0.000050,0.000050 c -1.169400,1.169400 -8.786600,-1.903518 -7.617200,-3.072918 l -0.000000,0.000000 c 1.169400,-1.169400 1.133095,9.557024 -0.036305,10.726424 l -0.507169,0.507169 c -1.845625,1.845625 1.554823,9.135295 3.400448,7.289670 l 0.587930,-0.587930 c 2.629531,-2.629531 6.364403,4.325715 3.734872,6.955246 l -15.024421,15.024421 c -1.855917,1.855917 0.048205,-10.738324 1.904122,-12.594240 l 1.391938,-1.391938 M 1201.325484,747.445259 l -0.775191,0.775191 c -1.033587,1.033587 8.882581,1.807537 9.916169,0.773950 l 0.103744,-0.103744 c 1.171913,-1.171913 16.994142,-6.304023 15.822228,-5.132110 l -4.495801,4.495801 M 1181.653350,742.968108 l -16.339745,-16.339745 c -2.534365,-2.534365 1.138955,-9.551163 3.673321,-7.016798 l 0.547105,0.547105 c 1.804892,1.804892 5.032694,-5.657424 3.227802,-7.462316 l -0.477669,-0.477669 c -1.168000,-1.168000 -1.195363,-11.885482 -0.027363,-10.717482 l 0.000000,-0.000000 c 1.168000,1.168000 -6.210900,4.479218 -7.378900,3.311218 l -0.000050,-0.000050 c -1.168067,-1.168067 -7.205490,3.484629 -6.037423,4.652695 l 1.039791,1.039791 c 1.168067,1.168067 -1.451501,-12.141620 -2.619568,-13.309686 l -0.000000,-0.000000 c -1.168067,-1.168067 6.449133,-4.240985 7.617200,-3.072918 l 0.000050,0.000050 c 1.168000,1.168000 8.546900,-2.143218 7.378900,-3.311218 l -0.181461,-0.181461 c -0.926052,-0.926052 -0.505838,-11.195956 0.420214,-10.269904 l 0.000000,0.000000 c 0.926052,0.926052 -6.510140,4.179978 -7.436192,3.253927 l -0.366617,-0.366617 c -0.921259,-0.921259 -7.790171,2.899947 -6.868912,3.821206 l 0.000002,0.000002 c 0.921256,0.921256 3.630253,-7.059866 2.708996,-7.981122 l -0.036874,-0.036874 c -0.872091,-0.872091 6.285753,-4.404366 7.157844,-3.532274 l 0.000000,0.000000 c 0.872091,0.872091 4.428471,-6.261648 3.556379,-7.133739 l -0.000113,-0.000113 c -0.872242,-0.872242 5.662983,-5.027135 6.535225,-4.154893 l 0.114483,0.114483 c 0.827045,0.827045 4.207700,-6.482418 3.380655,-7.309463 l 0.000000,-0.000000 c -0.827045,-0.827045 4.509806,-6.180312 5.336851,-5.353267 l 0.000215,0.000215 c 0.827332,0.827332 7.789963,-2.900155 6.962631,-3.727487 l -1.051731,-1.051731 c -1.033979,-1.033979 7.020307,-3.669811 8.054286,-2.635832 l 0.000000,0.000000 c 1.033979,1.033979 11.164893,0.474775 10.130914,-0.559204 l -0.103408,-0.103408 c -1.171857,-1.171857 10.998400,0.308282 12.170257,1.480139 l 4.370231,4.370231 M 1179.270103,729.894743 l -2.731650,-2.731650 M 1192.289312,742.913952 l 4.502975,4.502975 c 1.171913,1.171913 13.335759,2.645641 12.163846,1.473728 l -0.105638,-0.105638 c -1.031062,-1.031062 9.081193,-1.608925 10.112255,-0.577863 l 0.000000,0.000000 c 1.031062,1.031062 9.032238,-1.657880 8.001176,-2.688942 l -1.034019,-1.034019 c -0.827539,-0.827539 6.109574,-4.580544 6.937113,-3.753006 l 0.000000,-0.000000 c 0.827539,0.827539 6.121451,-4.568667 5.293913,-5.396205 l -0.000143,-0.000143 c -0.827729,-0.827729 2.505398,-8.184720 3.333127,-7.356991 l 0.109950,0.109950 c 0.871248,0.871248 7.605582,-3.084537 6.734333,-3.955785 l -0.000378,-0.000378 c -0.870744,-0.870744 2.704374,-7.985744 3.575118,-7.115000 l -0.000000,-0.000000 c 0.870744,0.870744 8.056266,-2.633853 7.185521,-3.504597 l -0.041665,-0.041665 c -0.926297,-0.926297 1.707834,-8.982284 2.634131,-8.055987 l 0.000196,0.000196 c 0.926559,0.926559 -5.730686,4.959432 -6.657244,4.032874 l -0.367043,-0.367043 c -0.922985,-0.922985 -8.649716,2.040403 -7.726731,2.963387 l 0.000074,0.000074 c 0.922887,0.922887 -1.764634,8.925484 -2.687521,8.002597 l 0.000000,-0.000000 c -0.922887,-0.922887 11.244563,0.554445 12.167450,1.477331 l 0.076571,0.076571 c 0.827090,0.827090 -2.989444,7.700674 -3.816535,6.873584 l 0.000000,0.000000 c -0.827090,-0.827090 -6.206603,4.483516 -5.379512,5.310606 l 0.000329,0.000329 c 0.827530,0.827530 -4.551324,6.138794 -5.378854,5.311265 l -0.000329,-0.000329 c -0.827969,-0.827969 -7.778699,2.911420 -6.950730,3.739388 l 0.767349,0.767349 M 1163.932769,671.796935 l -0.761383,-0.761383 c -0.827331,-0.827331 2.958649,-7.731469 3.785980,-6.904138 l 0.000047,0.000047 c 0.827268,0.827268 6.079109,-4.611009 5.251841,-5.438277 l -0.000047,-0.000047 c -0.827205,-0.827205 4.424732,-6.265387 5.251936,-5.438182 l -0.000000,0.000000 c 0.827205,0.827205 7.797846,-2.892272 6.970642,-3.719476 l -0.773160,-0.773160 M 1174.446062,671.620111 l 1.389013,1.389013 M 1248.111500,702.525075 l -0.877050,-0.877050 c -1.169400,-1.169400 6.447800,-4.242318 7.617200,-3.072918 l 0.001150,0.001150 c 1.168000,1.168000 8.544700,-2.145418 7.376700,-3.313418 l -0.000000,0.000000 c -1.168000,-1.168000 -3.700819,-14.390937 -2.532819,-13.222937 l 0.996758,0.996758 c 1.169467,1.169467 -4.672273,6.017846 -5.841739,4.848379 l -0.000050,-0.000050 c -1.169400,-1.169400 -8.786600,1.903518 -7.617200,3.072918 l -0.000000,-0.000000 c 1.169400,1.169400 1.169400,-9.520718 0.000000,-10.690118 l -0.473031,-0.473031 c -1.800108,-1.800108 1.481194,-9.208924 3.281303,-7.408816 l 0.682863,0.682863 c 2.710592,2.710592 6.285670,-4.404448 3.575078,-7.115040 l -15.062248,-15.062248 c -1.868866,-1.868866 0.214245,10.904364 2.083112,12.773230 l 1.401650,1.401650"
         id="path11" />
    </g>
    <g
       id="g12">
      <path
         d="m 647.53125,589.96094 c -0.48346,6.6e-4 -0.87502,0.39397 -0.875,0.8789 -2e-5,0.48494 0.39154,0.87825 0.875,0.87891 h 7.28906 l 9.65235,4.91797 4.67578,9.68359 v 127.32617 l -4.67188,9.52539 -9.65429,4.83985 h -7.29102 c -0.48346,6.6e-4 -0.87502,0.39397 -0.875,0.8789 -2e-5,0.48494 0.39154,0.87825 0.875,0.87891 h 22.49414 14.99609 22.37305 c 0.48422,4.2e-4 0.87698,-0.39321 0.87695,-0.87891 3e-5,-0.48569 -0.39273,-0.87932 -0.87695,-0.8789 h -7.17187 l -9.44727,-4.73828 -4.87891,-9.63282 v -66.47656 h 73.22657 v 66.48242 l -4.67383,9.52539 -9.65235,4.83985 h -7.41015 c -0.48422,-4.2e-4 -0.87698,0.39321 -0.87695,0.8789 -3e-5,0.4857 0.39273,0.87933 0.87695,0.87891 h 22.61133 14.99609 22.375 c 0.48346,-6.6e-4 0.87502,-0.39397 0.875,-0.87891 2e-5,-0.48493 -0.39154,-0.87824 -0.875,-0.8789 h -7.17187 l -9.44727,-4.73828 -4.87891,-9.63282 V 606.32617 l 4.88282,-9.79492 9.44531,-4.8125 h 7.16992 c 0.48346,-6.6e-4 0.87502,-0.39397 0.875,-0.87891 2e-5,-0.48493 -0.39154,-0.87824 -0.875,-0.8789 h -22.375 -14.99609 -22.61133 c -0.48422,-4.2e-4 -0.87698,0.39321 -0.87695,0.8789 -3e-5,0.4857 0.39273,0.87933 0.87695,0.87891 h 7.4082 l 9.65039,4.91797 4.67774,9.68359 v 59.08594 h -73.22657 v -59.08008 l 4.88477,-9.79492 9.44531,-4.8125 h 7.16797 c 0.48422,4.2e-4 0.87698,-0.39321 0.87695,-0.87891 3e-5,-0.48569 -0.39273,-0.87932 -0.87695,-0.8789 h -22.37305 -14.99609 z m 11.1582,1.75781 h 3.40821 l 1.11132,2.30273 z m 5.35547,0 h 5.10352 v 5.32812 l -3.35547,-1.70898 z m 6.85742,0 h 13.24219 v 74.56641 81.72656 h -13.24219 z m 14.99414,0 h 5.32422 l -1.75,3.50781 -3.57422,1.82031 z m 7.28321,0 h 3.17773 l -4.25976,2.16992 z m 55.48437,0 h 3.40625 l 1.11328,2.30273 z m 5.35352,0 h 5.10547 v 5.32812 l -3.35743,-1.70898 z m 6.85742,0 h 13.24219 V 748.01172 H 760.875 v -81.72656 z m 14.99609,0 h 5.32227 l -1.75,3.50781 -3.57227,1.82031 z m 7.28125,0 h 3.17774 l -4.25977,2.16992 z m -105.74804,5.88086 c -0.48499,-4.2e-4 -0.87806,0.3944 -0.87696,0.88086 v 142.89062 c -2e-5,0.4857 0.39274,0.87933 0.87696,0.87891 0.48422,4.2e-4 0.87697,-0.39321 0.87695,-0.87891 V 598.48047 c 0.001,-0.48646 -0.39197,-0.88128 -0.87695,-0.88086 z m 89.97265,0 c -0.48422,6.6e-4 -0.8761,0.39516 -0.875,0.88086 v 142.89062 c -2e-5,0.48494 0.39154,0.87825 0.875,0.87891 0.48422,4.2e-4 0.87698,-0.39321 0.87696,-0.87891 V 598.48047 c 0.001,-0.48646 -0.39197,-0.88128 -0.87696,-0.88086 z m -79.22265,0.26953 -2.25782,4.52734 v -3.37695 z m 89.97265,0 -2.25586,4.52734 v -3.37695 z m -111.07226,0.082 2.09375,1.06836 v 3.26953 z m 89.97265,0 2.09571,1.06836 v 3.26953 z m -71.13086,139.57031 2.2461,4.43164 -2.2461,-1.125 z m 89.97461,0 2.24414,4.43164 -2.24414,-1.125 z m -106.72265,0.10547 v 3.20117 l -2.08203,1.04493 z m 89.97461,0 v 3.20117 l -2.08203,1.04493 z m -89.97461,5.16602 v 5.21875 h -5.09375 l 1.73242,-3.5332 z m 16.74804,0 3.58008,1.79492 1.73438,3.42383 h -5.31446 z m 73.22657,0 v 5.21875 h -5.09571 l 1.73438,-3.5332 z m 16.74804,0 3.57813,1.79492 1.73437,3.42383 h -5.3125 z m -112.67382,2.98437 -1.09571,2.23438 h -3.35937 z m 89.97265,0 -1.0957,2.23438 h -3.35938 z m -61.06055,0.13086 4.19532,2.10352 h -3.12891 z m 89.97461,0 4.19336,2.10352 h -3.1289 z"
         style="baseline-shift:baseline;display:inline;overflow:visible;vector-effect:none;enable-background:accumulate;stop-color:#000000;stop-opacity:1"
         id="path10" />
      <path
         style="fill:none;stroke:#000000;stroke-width:1.0"
         d="M 657.292122,589.960940 l -0.999405,0.999405 c -1.332540,1.332540 5.749306,4.940812 7.081846,3.608272 l 0.503255,-0.503255 c 1.169267,-1.169267 7.316838,3.373280 6.147571,4.542547 l 0.000000,-0.000000 c -1.169267,1.169267 6.209633,4.480485 7.378900,3.311218 l 0.000005,-0.000005 c 1.169273,-1.169273 10.982199,-0.292081 9.812926,0.877192 l -2.196716,2.196716 c -1.167967,1.167967 -1.167967,-9.522152 0.000000,-10.690118 l 0.000000,0.000000 c 1.167967,-1.167967 -6.056155,-4.633964 -7.224121,-3.465997 l -0.002930,0.002930 c -1.171873,1.171873 -11.861992,1.171873 -10.690118,0.000000 l 0.222439,-0.222439 c 0.875288,-0.875288 1.128620,9.561498 0.253332,10.436786 l -0.000000,0.000000 c -0.875288,0.875288 1.350511,9.339607 2.225799,8.464320 l 0.220484,-0.220484 c 1.169267,-1.169267 8.548177,2.141942 7.378910,3.311208 l -0.000985,0.000985 c -1.167967,1.167967 6.449223,4.240895 7.617190,3.072928 l 0.000000,0.000000 c 1.167967,-1.167967 1.167967,9.522152 0.000000,10.690118 l 0.000000,-0.000000 c -1.167967,1.167967 -8.785157,-1.904962 -7.617190,-3.072928 l 0.000985,-0.000985 c 1.169267,-1.169267 -6.209643,-4.480475 -7.378910,-3.311208 l 0.000000,-0.000000 c -1.169267,1.169267 -1.169267,11.859385 0.000000,10.690118 l 0.000000,0.000000 c 1.169267,-1.169267 8.548177,2.141942 7.378910,3.311208 l -0.000985,0.000985 c -1.167967,1.167967 6.449223,4.240895 7.617190,3.072928 l 0.000000,0.000000 c 1.167967,-1.167967 1.167967,9.522152 0.000000,10.690118 l 0.000000,-0.000000 c -1.167967,1.167967 -8.785157,-1.904962 -7.617190,-3.072928 l 0.000985,-0.000985 c 1.169267,-1.169267 -6.209643,-4.480475 -7.378910,-3.311208 l 0.000000,-0.000000 c -1.169267,1.169267 -1.169267,11.859385 0.000000,10.690118 l 0.000000,0.000000 c 1.169267,-1.169267 8.548177,2.141942 7.378910,3.311208 l -0.000985,0.000985 c -1.167967,1.167967 6.449223,4.240895 7.617190,3.072928 l 0.000000,0.000000 c 1.167967,-1.167967 4.019482,6.670637 2.851515,7.838603 l -0.004880,0.004880 c -1.169273,1.169273 -11.632118,0.942000 -10.462845,-0.227273 l 0.000005,-0.000005 c 1.169267,-1.169267 -6.209643,-4.480475 -7.378910,-3.311208 l 0.000000,-0.000000 c -1.169267,1.169267 -1.169267,11.859385 0.000000,10.690118 l 0.000000,0.000000 c 1.169267,-1.169267 8.548177,2.141942 7.378910,3.311208 l -0.000985,0.000985 c -1.167967,1.167967 6.449223,4.240895 7.617190,3.072928 l 0.000000,0.000000 c 1.167967,-1.167967 1.167967,-11.858085 0.000000,-10.690118 l 0.000000,-0.000000 c -1.167967,1.167967 12.367806,-1.677688 13.535773,-2.845655 l 0.002930,-0.002930 c 1.171873,-1.171873 11.861992,-1.171873 10.690118,0.000000 l -0.000000,0.000000 c -1.171873,1.171873 9.518245,1.171873 10.690118,0.000000 l 0.000000,0.000000 c 1.171873,-1.171873 11.861992,-1.171873 10.690118,0.000000 l -0.000000,0.000000 c -1.171873,1.171873 9.518245,1.171873 10.690118,0.000000 l 0.000000,0.000000 c 1.171873,-1.171873 11.861992,-1.171873 10.690118,0.000000 l -0.002930,0.002930 c -1.167967,1.167967 6.824189,3.865929 7.992156,2.697963 l 0.000000,0.000000 c 1.167967,-1.167967 8.546877,2.143242 7.378910,3.311208 l -0.000005,0.000005 c -1.167973,1.167973 6.447267,4.242852 7.615240,3.074878 l 0.000970,-0.000970 c 1.169267,-1.169267 1.169267,-11.859385 0.000000,-10.690118 l -0.000970,0.000970 c -1.167973,1.167973 -8.783213,-1.906905 -7.615240,-3.074878 l 0.000005,-0.000005 c 1.167967,-1.167967 -6.210943,-4.479175 -7.378910,-3.311208 l 0.000000,-0.000000 c -1.167967,1.167967 -1.167967,-9.522152 0.000000,-10.690118 l 0.000000,0.000000 c 1.167967,-1.167967 8.546877,2.143242 7.378910,3.311208 l -0.000005,0.000005 c -1.167973,1.167973 6.447267,4.242852 7.615240,3.074878 l 0.000970,-0.000970 c 1.169267,-1.169267 1.169267,-11.859385 0.000000,-10.690118 l -0.000970,0.000970 c -1.167973,1.167973 -8.783213,-1.906905 -7.615240,-3.074878 l 0.000005,-0.000005 c 1.167967,-1.167967 -6.210943,-4.479175 -7.378910,-3.311208 l 0.000000,-0.000000 c -1.167967,1.167967 -1.167967,-9.522152 0.000000,-10.690118 l 0.000000,0.000000 c 1.167967,-1.167967 8.546877,2.143242 7.378910,3.311208 l -0.000005,0.000005 c -1.167973,1.167973 6.447267,4.242852 7.615240,3.074878 l 0.000970,-0.000970 c 1.169267,-1.169267 1.169267,-11.859385 0.000000,-10.690118 l -0.000970,0.000970 c -1.167973,1.167973 -8.783213,-1.906905 -7.615240,-3.074878 l 0.000005,-0.000005 c 1.167967,-1.167967 -6.210943,-4.479175 -7.378910,-3.311208 l 0.000000,-0.000000 c -1.167967,1.167967 -1.363071,-9.327048 -0.195104,-10.495014 l 0.195099,-0.195099 c 1.167973,-1.167973 8.546883,2.143235 7.378910,3.311208 l -0.000000,0.000000 c -1.167973,1.167973 6.447267,4.242852 7.615240,3.074878 l 0.000970,-0.000970 c 1.169267,-1.169267 1.169267,-11.859385 0.000000,-10.690118 l -0.539647,0.539647 c -0.449737,0.449737 -8.030669,-2.659449 -7.580932,-3.109186 l 0.000000,0.000000 c 0.449737,-0.449737 -5.886127,-4.803992 -6.335864,-4.354254 l -0.538672,0.538672 c -1.167967,1.167967 -8.545640,-2.144478 -7.377673,-3.312445 l 0.002930,-0.002930 c 1.171873,-1.171873 5.455981,5.234138 4.284107,6.406011 l -0.809262,0.809262 c -0.870856,0.870856 -6.917792,-3.772327 -6.046935,-4.643183 l 0.000000,0.000000 c 0.870856,-0.870856 -7.021409,-3.668709 -7.892266,-2.797852 l -0.225763,0.225763 c -1.171873,1.171873 20.208363,1.171873 21.380237,0.000000 l 0.000000,0.000000 c 1.171873,-1.171873 11.861992,-1.171873 10.690118,0.000000 l -0.000000,0.000000 c -1.171873,1.171873 2.887489,7.802629 4.059363,6.630756 l 3.549736,-3.549736 c 1.171873,-1.171873 14.943011,-4.252893 13.771138,-3.081019 l -0.000000,0.000000 c -1.171873,1.171873 -11.861992,1.171873 -10.690118,0.000000 l 0.878905,-0.878905 M 689.362477,589.960940 l -0.878905,0.878905 c -1.171873,1.171873 7.511544,3.178575 8.683417,2.006701 l 2.885606,-2.885606 M 670.902340,683.251905 l -0.876950,0.876950 c -1.169267,1.169267 6.209633,4.480485 7.378900,3.311218 l 0.000985,-0.000985 c 1.167967,-1.167967 8.783197,1.906922 7.615230,3.074888 l 0.000000,-0.000000 c -1.167967,1.167967 -1.167967,11.858085 0.000000,10.690118 l 0.000000,0.000000 c 1.167967,-1.167967 -6.447263,-4.242855 -7.615230,-3.074888 l -0.000985,0.000985 c -1.169267,1.169267 -8.548167,-2.141952 -7.378900,-3.311218 l 0.000000,0.000000 c 1.169267,-1.169267 1.169267,9.520852 0.000000,10.690118 l 0.000000,-0.000000 c -1.169267,1.169267 6.209633,4.480485 7.378900,3.311218 l 0.000985,-0.000985 c 1.167967,-1.167967 8.783197,1.906922 7.615230,3.074888 l 0.000000,-0.000000 c -1.167967,1.167967 -1.167967,11.858085 0.000000,10.690118 l 0.000000,0.000000 c 1.167967,-1.167967 -6.447263,-4.242855 -7.615230,-3.074888 l -0.000985,0.000985 c -1.169267,1.169267 -8.548167,-2.141952 -7.378900,-3.311218 l 0.000000,0.000000 c 1.169267,-1.169267 1.169267,9.520852 0.000000,10.690118 l 0.000000,-0.000000 c -1.169267,1.169267 6.209633,4.480485 7.378900,3.311218 l 0.000985,-0.000985 c 1.167967,-1.167967 8.783197,1.906922 7.615230,3.074888 l -0.224021,0.224021 c -0.869272,0.869272 2.755222,7.934897 3.624494,7.065625 l -0.000000,0.000000 c 0.869272,-0.869272 6.318765,4.371353 5.449493,5.240625 l -0.002537,0.002537 c -0.872655,0.872655 -7.992695,-2.697424 -7.120040,-3.570079 l 0.000112,-0.000112 c 0.872805,-0.872805 6.137222,4.552896 5.264418,5.425701 l -1.230788,1.230788 c -1.167967,1.167967 -6.929098,-3.761021 -5.761131,-4.928987 l 0.032250,-0.032250 c 1.124966,-1.124966 -6.490264,-4.199855 -7.615230,-3.074888 l 0.000000,0.000000 c -1.124966,1.124966 -8.570327,-2.119791 -7.445361,-3.244758 l 0.033225,-0.033225 c 1.169267,-1.169267 1.169267,9.520852 0.000000,10.690118 l -0.311508,0.311508 c -1.584610,1.584610 -5.591512,-5.098606 -4.006902,-6.683216 l 1.764524,-1.764524 c 1.171873,-1.171873 13.794817,7.585420 12.622943,8.757293 l 0.000000,-0.000000 c -1.171873,1.171873 -19.938072,-1.442165 -18.766198,-2.614038 l 2.214661,-2.214661 c 1.128310,-1.128310 -14.357835,3.667717 -15.486144,4.796026 l -0.000000,0.000000 c -1.128310,1.128310 9.496463,1.193655 10.624773,0.065346 l 0.911608,-0.911608 M 760.875000,678.800191 l -0.875975,0.875975 c -1.167967,1.167967 6.210933,4.479185 7.378900,3.311218 l 0.000005,-0.000005 c 1.167973,-1.167973 8.785153,1.904965 7.617180,3.072938 l -0.000970,0.000970 c -1.169267,1.169267 -1.169267,11.859385 0.000000,10.690118 l 0.000970,-0.000970 c 1.167973,-1.167973 -6.449207,-4.240912 -7.617180,-3.072938 l -0.000005,0.000005 c -1.167967,1.167967 -8.546867,-2.143252 -7.378900,-3.311218 l 0.000000,0.000000 c 1.167967,-1.167967 1.167967,9.522152 0.000000,10.690118 l 0.000000,-0.000000 c -1.167967,1.167967 6.210933,4.479185 7.378900,3.311218 l 0.000005,-0.000005 c 1.167973,-1.167973 8.785153,1.904965 7.617180,3.072938 l -0.000970,0.000970 c -1.169267,1.169267 -1.169267,11.859385 0.000000,10.690118 l 0.000970,-0.000970 c 1.167973,-1.167973 -6.449207,-4.240912 -7.617180,-3.072938 l -0.000005,0.000005 c -1.167967,1.167967 -8.546867,-2.143252 -7.378900,-3.311218 l 0.000000,0.000000 c 1.167967,-1.167967 1.167967,9.522152 0.000000,10.690118 l 0.000000,-0.000000 c -1.167967,1.167967 6.210933,4.479185 7.378900,3.311218 l 0.000005,-0.000005 c 1.167973,-1.167973 8.785153,1.904965 7.617180,3.072938 l -0.225520,0.225520 c -0.869867,0.869867 1.258341,9.431777 2.128209,8.561910 l 0.000000,-0.000000 c 0.869867,-0.869867 4.850659,5.839460 3.980791,6.709327 l -0.193627,0.193627 c -1.128037,1.128037 -6.849783,-3.840336 -5.721746,-4.968372 l 0.031893,-0.031893 c 1.167973,-1.167973 -6.449207,-4.240912 -7.617180,-3.072938 l -0.000000,0.000000 c -1.167973,1.167973 -8.890075,-1.800043 -7.722102,-2.968017 l 0.343197,-0.343197 c 1.167967,-1.167967 1.167967,9.522152 0.000000,10.690118 l 0.000000,-0.000000 c -1.167967,1.167967 4.445472,6.244646 5.613439,5.076679 l 0.002930,-0.002930 c 1.171873,-1.171873 -9.518215,-1.171903 -10.690088,-0.000030 l -0.000015,0.000015 c -1.171893,1.171893 -11.862012,1.171893 -10.690118,0.000000 l 1.197885,-1.197885 M 700.595779,749.769530 l 1.757810,-1.757810 M 777.184447,748.011690 l -0.878920,0.878920 c -1.171893,1.171893 9.518225,1.171893 10.690118,0.000000 l 1.000142,-1.000142 c 0.872789,-0.872789 10.338438,0.351680 9.465649,1.224470 l -0.654592,0.654592 M 657.292122,749.769530 l -0.997787,-0.997787 c -1.330382,-1.330382 5.790116,-4.900002 7.120498,-3.569620 l 0.476754,0.476754 c 1.169267,1.169267 7.303069,-3.387049 6.133802,-4.556316 l 0.000000,0.000000 c -1.169267,-1.169267 6.209633,-4.480485 7.378900,-3.311218 l 0.000005,0.000005 c 1.169273,1.169273 10.809171,0.119053 9.639898,-1.050221 l -2.023688,-2.023688 c -1.167967,-1.167967 -1.167967,9.522152 0.000000,10.690118 l 0.000000,-0.000000 c 1.167967,1.167967 -6.056155,4.633964 -7.224121,3.465997 l -0.002930,-0.002930 c -1.171873,-1.171873 9.518215,-1.171903 10.690088,-0.000030 l 0.000015,0.000015 c 1.171893,1.171893 11.862012,1.171893 10.690118,0.000000 l -2.818756,-2.818756 M 667.982240,749.769530 l -1.102846,-1.102846 c -0.873326,-0.873326 -0.120855,-10.810973 0.752471,-9.937648 l 0.000000,0.000000 c 0.873326,0.873326 3.488806,-7.201312 2.615481,-8.074638 l -0.221956,-0.221956 c -1.169267,-1.169267 6.209633,-4.480485 7.378900,-3.311218 l 0.000985,0.000985 c 1.167967,1.167967 8.783197,-1.906922 7.615230,-3.074888 l 0.000000,0.000000 c -1.167967,-1.167967 -1.167967,-11.858085 0.000000,-10.690118 l 0.000000,-0.000000 c 1.167967,1.167967 -6.447263,4.242855 -7.615230,3.074888 l -0.000985,-0.000985 c -1.169267,-1.169267 -8.548167,2.141952 -7.378900,3.311218 l 0.000000,-0.000000 c 1.169267,1.169267 1.169267,-9.520852 0.000000,-10.690118 l 0.000000,0.000000 c -1.169267,-1.169267 6.209633,-4.480485 7.378900,-3.311218 l 0.000985,0.000985 c 1.167967,1.167967 8.783197,-1.906922 7.615230,-3.074888 l 0.000000,0.000000 c -1.167967,-1.167967 -1.167967,-11.858085 0.000000,-10.690118 l 0.000000,-0.000000 c 1.167967,1.167967 -6.447263,4.242855 -7.615230,3.074888 l -0.000985,-0.000985 c -1.169267,-1.169267 -8.548167,2.141952 -7.378900,3.311218 l 0.000000,-0.000000 c 1.169267,1.169267 1.169267,-9.520852 0.000000,-10.690118 l 0.000000,0.000000 c -1.169267,-1.169267 6.209633,-4.480485 7.378900,-3.311218 l 0.000985,0.000985 c 1.167967,1.167967 8.783197,-1.906922 7.615230,-3.074888 l 0.000000,0.000000 c -1.167967,-1.167967 -1.167967,-11.858085 0.000000,-10.690118 l 0.000000,-0.000000 c 1.167967,1.167967 7.549440,-3.140678 6.381473,-4.308645 l -0.002930,-0.002930 c -1.171873,-1.171873 9.518245,-1.171873 10.690118,0.000000 l 0.000000,0.000000 c 1.171873,1.171873 11.861992,1.171873 10.690118,0.000000 l -0.000000,0.000000 c -1.171873,-1.171873 9.518245,-1.171873 10.690118,0.000000 l 0.000000,0.000000 c 1.171873,1.171873 11.861992,1.171873 10.690118,0.000000 l -0.000000,0.000000 c -1.171873,-1.171873 9.518245,-1.171873 10.690118,0.000000 l 0.000000,0.000000 c 1.171873,1.171873 11.861992,1.171873 10.690118,0.000000 l -0.002930,-0.002930 c -1.167967,-1.167967 3.294231,-7.395888 4.462197,-6.227921 l 0.000000,-0.000000 c 1.167967,1.167967 8.546877,-2.143242 7.378910,-3.311208 l -0.000005,-0.000005 c -1.167973,-1.167973 6.447267,-4.242852 7.615240,-3.074878 l 0.000970,0.000970 c 1.169267,1.169267 1.169267,11.859385 0.000000,10.690118 l -0.000970,-0.000970 c -1.167973,-1.167973 -8.783213,1.906905 -7.615240,3.074878 l 0.000005,0.000005 c 1.167967,1.167967 -6.210943,4.479175 -7.378910,3.311208 l 0.000000,0.000000 c -1.167967,-1.167967 -1.167967,9.522152 0.000000,10.690118 l 0.000000,-0.000000 c 1.167967,1.167967 8.546877,-2.143242 7.378910,-3.311208 l -0.000005,-0.000005 c -1.167973,-1.167973 6.447267,-4.242852 7.615240,-3.074878 l 0.000970,0.000970 c 1.169267,1.169267 1.169267,11.859385 0.000000,10.690118 l -0.000970,-0.000970 c -1.167973,-1.167973 -8.783213,1.906905 -7.615240,3.074878 l 0.000005,0.000005 c 1.167967,1.167967 -6.210943,4.479175 -7.378910,3.311208 l 0.000000,0.000000 c -1.167967,-1.167967 -1.167967,9.522152 0.000000,10.690118 l 0.000000,-0.000000 c 1.167967,1.167967 8.546877,-2.143242 7.378910,-3.311208 l -0.000005,-0.000005 c -1.167973,-1.167973 6.447267,-4.242852 7.615240,-3.074878 l 0.000970,0.000970 c 1.169267,1.169267 1.169267,11.859385 0.000000,10.690118 l -0.000970,-0.000970 c -1.167973,-1.167973 -8.783213,1.906905 -7.615240,3.074878 l 0.000005,0.000005 c 1.167967,1.167967 -6.210943,4.479175 -7.378910,3.311208 l 0.000000,0.000000 c -1.167967,-1.167967 -1.167967,9.522152 0.000000,10.690118 l 0.000000,-0.000000 c 1.167967,1.167967 8.546877,-2.143242 7.378910,-3.311208 l -0.000005,-0.000005 c -1.167973,-1.167973 6.447267,-4.242852 7.615240,-3.074878 l 0.000970,0.000970 c 1.169267,1.169267 1.169267,11.859385 0.000000,10.690118 l -0.000970,-0.000970 c -1.167973,-1.167973 -8.783213,1.906905 -7.615240,3.074878 l 0.000000,0.000000 c 1.167973,1.167973 -6.210937,4.479182 -7.378910,3.311208 l -0.059685,-0.059685 c -1.247553,-1.247553 -4.766323,5.923795 -3.518770,7.171348 l 0.553905,0.553905 c 1.171893,1.171893 -3.178310,7.511808 -4.350203,6.339915 l -0.002945,-0.002945 c -1.167967,-1.167967 6.209737,-4.480382 7.377703,-3.312415 l 0.448809,0.448809 c 0.569555,0.569555 7.055107,-3.635011 6.485552,-4.204566 l -0.000000,0.000000 c -0.569555,-0.569555 -4.640280,6.049839 -4.070725,6.619393 l 0.451739,0.451739 c 1.171873,1.171873 11.861992,1.171873 10.690118,0.000000 l 0.000000,0.000000 c -1.171873,-1.171873 3.099611,-7.590507 4.271484,-6.418634 l 3.309960,3.309960 c 1.171873,1.171873 14.970666,4.280547 13.798792,3.108674 l -0.000000,0.000000 c -1.171873,-1.171873 -11.862022,-1.171903 -10.690148,-0.000030 l 0.878935,0.878935 M 670.902340,677.858802 l -0.876950,-0.876950 c -1.169267,-1.169267 6.209633,-4.480485 7.378900,-3.311218 l 0.000005,0.000005 c 1.169273,1.169273 1.169273,-9.520845 0.000000,-10.690118 l -0.000005,-0.000005 c -1.169267,-1.169267 -8.548167,2.141952 -7.378900,3.311218 l 0.000000,-0.000000 c 1.169267,1.169267 1.169267,-9.520852 0.000000,-10.690118 l 0.000000,0.000000 c -1.169267,-1.169267 6.209633,-4.480485 7.378900,-3.311218 l 0.000985,0.000985 c 1.167967,1.167967 8.783197,-1.906922 7.615230,-3.074888 l 0.000000,0.000000 c -1.167967,-1.167967 -1.167967,9.522152 0.000000,10.690118 l 0.000000,-0.000000 c 1.167967,1.167967 -6.447263,-17.137382 -7.615230,-18.305348 l -0.000985,-0.000985 c -1.169267,-1.169267 -8.548167,2.141952 -7.378900,3.311218 l 0.000000,-0.000000 c 1.169267,1.169267 1.169267,-9.520852 0.000000,-10.690118 l 0.000000,0.000000 c -1.169267,-1.169267 6.209633,-4.480485 7.378900,-3.311218 l 0.000985,0.000985 c 1.167967,1.167967 8.783197,-1.906922 7.615230,-3.074888 l 0.000000,0.000000 c -1.167967,-1.167967 -1.167967,9.522152 0.000000,10.690118 l 0.000000,-0.000000 c 1.167967,1.167967 -6.447263,-17.137382 -7.615230,-18.305348 l -0.000985,-0.000985 c -1.169267,-1.169267 -8.548167,2.141952 -7.378900,3.311218 l 0.000000,-0.000000 c 1.169267,1.169267 1.169267,-9.520852 0.000000,-10.690118 l 0.000000,0.000000 c -1.169267,-1.169267 6.209633,-4.480485 7.378900,-3.311218 l 0.000985,0.000985 c 1.167967,1.167967 8.783197,-1.906922 7.615230,-3.074888 l -0.222163,-0.222163 c -0.871749,-0.871749 2.795094,-7.895024 3.666843,-7.023275 l 0.000712,0.000712 c 0.870800,0.870800 6.305610,-4.384508 5.434811,-5.255307 l 0.000000,0.000000 c -0.870800,-0.870800 -7.953594,2.736524 -7.082794,3.607324 l 0.000290,0.000290 c 0.871186,0.871186 6.074788,-4.615330 5.203603,-5.486516 l -1.240169,-1.240169 c -1.167967,-1.167967 -6.929098,3.761021 -5.761131,4.928987 l 0.054543,0.054543 c 1.095243,1.095243 -6.519987,4.170132 -7.615230,3.074888 l -0.000000,0.000000 c -1.095243,-1.095243 -8.585188,2.104930 -7.489945,3.200173 l 0.055518,0.055518 c 1.169267,1.169267 1.169267,-9.520852 0.000000,-10.690118 l -0.311508,-0.311508 c -1.584610,-1.584610 -9.578224,1.111895 -7.993613,2.696505 l 5.602327,5.602327 c 1.171873,1.171873 13.943725,-7.436511 12.771852,-8.608384 l -0.000000,0.000000 c -1.171873,-1.171873 20.208363,-1.171873 21.380237,0.000000 l 0.878905,0.878905 M 741.055258,748.011720 l 1.103672,1.103672 c 0.872184,0.872184 8.792227,-1.897891 7.920044,-2.770075 l -0.654138,-0.654138 M 775.871090,740.067079 l -1.753900,-1.753900 M 648.902998,591.718750 l -0.846232,-0.846232 c -1.128310,-1.128310 9.496463,-1.193655 10.624773,-0.065346 l 0.911578,0.911578 M 684.144530,616.270164 l 1.751950,1.751950 M 760.875000,650.240161 l -0.875975,-0.875975 c -1.167967,-1.167967 6.210933,-4.479185 7.378900,-3.311218 l 0.000005,0.000005 c 1.167973,1.167973 8.785153,-1.904965 7.617180,-3.072938 l -0.000970,-0.000970 c -1.169267,-1.169267 -1.169267,-11.859385 0.000000,-10.690118 l 0.000970,0.000970 c 1.167973,1.167973 -6.449207,4.240912 -7.617180,3.072938 l -0.000005,-0.000005 c -1.167967,-1.167967 -8.546867,2.143252 -7.378900,3.311218 l 0.000000,-0.000000 c 1.167967,1.167967 1.167967,-9.522152 0.000000,-10.690118 l -0.000000,-0.000000 c -1.167967,-1.167967 6.210933,-4.479185 7.378900,-3.311218 l 0.000005,0.000005 c 1.167973,1.167973 8.785153,-1.904965 7.617180,-3.072938 l -0.000970,-0.000970 c -1.169267,-1.169267 -1.169267,-11.859385 0.000000,-10.690118 l 0.000970,0.000970 c 1.167973,1.167973 -6.449207,4.240912 -7.617180,3.072938 l -0.000005,-0.000005 c -1.167967,-1.167967 -8.546867,2.143252 -7.378900,3.311218 l 0.000000,-0.000000 c 1.167967,1.167967 1.167967,-9.522152 0.000000,-10.690118 l -0.553727,-0.553727 c -1.167973,-1.167973 6.764659,-3.925460 7.932632,-2.757486 l 0.000000,0.000000 c 1.167973,1.167973 8.785153,-1.904965 7.617180,-3.072938 l -0.018756,-0.018756 c -1.145553,-1.145553 4.596288,-6.093830 5.741841,-4.948278 l 0.205456,0.205456 c 0.871611,0.871611 -3.094593,7.595525 -3.966205,6.723914 l -0.000000,0.000000 c -0.871611,-0.871611 -1.748742,-12.438860 -0.877131,-11.567249 l 0.225196,0.225196 c 1.171873,1.171873 -9.518245,1.171873 -10.690118,0.000000 l -0.002930,-0.002930 c -1.167967,-1.167967 -6.781406,3.908713 -5.613439,5.076679 l 0.000000,-0.000000 c 1.167967,1.167967 -14.261316,-3.571197 -15.429282,-4.739164 l -0.334585,-0.334585 c -1.171873,-1.171873 9.518245,-1.171873 10.690118,0.000000 l 0.878905,0.878905 M 786.116725,589.960940 l 1.887880,1.887880 c 0.872788,0.872788 10.329618,-0.360500 9.456830,-1.233288 l -0.654591,-0.654591"
         id="path12" />
    </g>
    <g
       id="g13">
      <path
         d="m 879.96289,642.72461 c -0.0922,-9e-5 -0.18381,0.0144 -0.27148,0.043 l -22.61329,7.40039 c -0.13559,0.0446 -0.25828,0.12167 -0.35742,0.22461 l -14.75781,15.28125 c -0.0897,0.0933 -0.15775,0.20535 -0.19922,0.32812 l -7.61719,22.44141 c -0.031,0.0912 -0.0468,0.18686 -0.0469,0.2832 v 15.04102 c 2.6e-4,0.0957 0.0161,0.19068 0.0469,0.28125 l 7.61719,22.5625 c 0.0424,0.1254 0.11251,0.23957 0.20508,0.33398 l 14.75781,15.04297 c 0.0972,0.0988 0.21633,0.17308 0.34766,0.2168 l 22.61328,7.52148 c 0.0889,0.029 0.1819,0.0435 0.27539,0.043 h 14.99609 c 0.0943,9e-5 0.18791,-0.0151 0.27735,-0.0449 l 22.375,-7.51953 c 0.1262,-0.0425 0.24109,-0.11332 0.33594,-0.20703 l 15.23437,-15.04297 c 0.34441,-0.34043 0.34879,-0.89636 0.01,-1.24219 -0.33961,-0.34667 -0.89525,-0.35104 -1.24024,-0.01 l -15.08984,14.89844 -22.04492,7.41016 h -14.64649 l -14.68555,-7.36524 -7.36718,-7.27148 -7.26953,-22.3457 v -21.42383 h 66.48437 15.23438 c 0.4842,3.7e-4 0.87692,-0.39323 0.87695,-0.87891 v -15.04101 c -1.5e-4,-0.13852 -0.033,-0.27505 -0.0957,-0.39844 l -7.61719,-15.04102 c -0.042,-0.0823 -0.0967,-0.15745 -0.16211,-0.22265 l -7.61524,-7.64063 c -0.097,-0.0971 -0.21545,-0.17002 -0.3457,-0.21289 l -22.375,-7.40234 c -0.0883,-0.0288 -0.1806,-0.0433 -0.27344,-0.043 z m 0.20313,1.75781 h 14.58789 l 14.54296,7.17774 7.16016,14.82617 v 21.36133 h -65.60937 v -6.61914 l 7.26953,-22.11133 7.36718,-7.38867 z m -11.65625,3.79492 -3.92969,1.9375 c -0.0861,0.0428 -0.16466,0.0996 -0.23242,0.16797 l -7.61719,7.64063 c -0.0969,0.097 -0.16982,0.21537 -0.21289,0.3457 l -7.37696,22.44336 c -0.0293,0.0882 -0.0444,0.18048 -0.0449,0.27344 v 7.64062 22.44336 c 4e-5,0.0922 0.0145,0.18381 0.043,0.27149 l 7.37891,22.68164 c 0.0437,0.1337 0.11868,0.25493 0.21875,0.35351 l 7.61719,7.52149 c 0.0655,0.0641 0.14065,0.11745 0.22265,0.1582 l 4.08789,2.05078 -10.83594,-3.60351 -14.46875,-14.7461 -7.50585,-22.23437 v -14.75 l 7.50585,-22.11914 14.46875,-14.98243 z m 38.15234,0.12305 10.19922,3.37305 7.36914,7.39453 7.45898,14.72851 v 13.95118 h -13.48047 v -21.5625 c 1.7e-4,-0.13328 -0.0299,-0.26486 -0.0879,-0.38477 l -7.3789,-15.2793 c -0.0851,-0.17667 -0.22678,-0.31968 -0.40235,-0.40625 z m 10.60156,9.36719 c -0.11352,0.009 -0.22467,0.0409 -0.32812,0.0937 -0.43162,0.21968 -0.6039,0.74877 -0.38477,1.18164 l 7.52149,14.85351 v 7.18946 c -3e-5,0.48569 0.39273,0.87932 0.87695,0.8789 0.48422,4.2e-4 0.87698,-0.39321 0.87695,-0.8789 v -7.40039 c -1.5e-4,-0.13852 -0.0329,-0.27505 -0.0957,-0.39844 l -7.61719,-15.04102 c -0.10532,-0.20789 -0.2887,-0.36527 -0.50976,-0.4375 -0.11042,-0.0359 -0.22632,-0.05 -0.33985,-0.041 z m -67.23047,7.64062 c -0.11352,-0.008 -0.22786,0.006 -0.33789,0.043 -0.22067,0.0731 -0.40334,0.23121 -0.50781,0.43945 l -7.37891,14.80274 c -0.0605,0.12196 -0.0919,0.25635 -0.0918,0.39258 v 30.08398 c -1.7e-4,0.13328 0.0299,0.26486 0.0879,0.38477 l 7.3789,15.16015 c 0.10234,0.20968 0.28364,0.3699 0.50391,0.44532 0.2193,0.0755 0.45949,0.0608 0.66797,-0.041 0.43561,-0.21246 0.61671,-0.73914 0.4043,-1.17578 l -7.29102,-14.97656 v -29.67188 l 7.28711,-14.61719 c 0.21669,-0.43447 0.0408,-0.96287 -0.39258,-1.17968 -0.10384,-0.0519 -0.21655,-0.0819 -0.33008,-0.0899 z"
         style="baseline-shift:baseline;display:inline;overflow:visible;vector-effect:none;enable-background:accumulate;stop-color:#000000;stop-opacity:1"
         id="path9" />
      <path
         style="fill:none;stroke:#000000;stroke-width:1.0"
         d="M 859.421412,649.401138 l -16.246211,16.246211 c -2.606137,2.606137 0.953078,9.737040 3.559215,7.130903 l 0.619838,-0.619838 c 1.779687,-1.779687 4.855918,5.834201 3.076231,7.613887 l -0.455935,0.455935 c -1.171773,1.171773 1.020092,9.670027 2.191865,8.498253 l 0.002850,-0.002850 c 1.167973,-1.167973 -8.408522,-2.281597 -9.576495,-1.113623 l -0.000000,0.000000 c -1.167973,1.167973 -7.157112,-3.533006 -5.989139,-4.700979 l 1.050995,-1.050995 c 1.169327,-1.169327 -1.508725,12.198843 -2.678051,13.368169 l -0.001015,0.001015 c -1.167973,1.167973 6.449237,4.240882 7.617210,3.072908 l 0.000000,0.000000 c 1.167973,-1.167973 8.547113,2.143005 7.379140,3.310978 l -0.180781,0.180781 c -0.927213,0.927213 -0.468632,11.158750 0.458581,10.231538 l 0.000000,0.000000 c 0.927213,-0.927213 -6.549157,-4.140961 -7.476369,-3.213749 l -0.364710,0.364710 c -0.922455,0.922455 -7.811914,-2.878204 -6.889459,-3.800659 l 0.000076,-0.000076 c 0.922354,-0.922354 3.620331,7.069788 2.697977,7.992141 l -0.035723,0.035723 c -0.874723,0.874723 6.322712,4.367406 7.197435,3.492683 l -0.000000,0.000000 c 0.874723,-0.874723 4.374962,6.315156 3.500240,7.189879 l -0.000239,0.000239 c -0.875041,0.875041 5.704773,4.985345 6.579814,4.110304 l 0.114089,-0.114089 c 0.827200,-0.827200 4.186314,6.503804 3.359114,7.331004 l 0.000000,0.000000 c -0.827200,0.827200 4.551648,6.138470 5.378848,5.311270 l 0.000577,-0.000577 c 0.827969,-0.827969 7.768900,2.921218 6.940931,3.749187 l -1.059791,1.059791 c -1.037778,1.037778 6.984143,3.705976 8.021920,2.668198 l 0.000000,0.000000 c 1.037778,-1.037778 11.137405,-0.447287 10.099628,0.590490 l -0.100677,0.100677 c -1.172013,1.172013 10.997045,-0.306927 12.169058,-1.478940 l 1.914491,-1.914491 M 870.025331,649.487338 l 4.407510,-4.407510 c 1.171933,-1.171933 13.338409,-2.648291 12.166476,-1.476357 l -0.107306,0.107306 c -1.028859,1.028859 9.113833,1.576285 10.142693,0.547425 l 0.000000,0.000000 c 1.028859,-1.028859 9.061524,1.628594 8.032665,2.657453 l -0.990302,0.990302 c -0.875340,0.875340 5.829579,4.860540 6.704918,3.985200 l 0.000015,-0.000015 c 0.875320,-0.875320 4.356678,6.333440 3.481358,7.208760 l -0.003844,0.003844 c -0.870195,0.870195 5.183025,5.507093 6.053220,4.636898 l -0.000000,0.000000 c 0.870195,-0.870195 4.463977,6.226142 3.593782,7.096337 l -0.000117,0.000117 c -0.870351,0.870351 -7.266957,-3.423161 -6.396606,-4.293512 l 0.119325,-0.119325 c 1.029451,-1.029451 1.237224,9.452894 0.207773,10.482345 l -0.103887,0.103887 c -1.167967,1.167967 6.447273,4.242845 7.615240,3.074878 l 0.000975,-0.000975 c 1.169267,-1.169267 8.786687,1.903432 7.617420,3.072698 l -0.224281,0.224281 c -0.870545,0.870545 -1.056222,-9.633896 -0.185677,-10.504441 l 0.000000,-0.000000 c 0.870545,-0.870545 -2.723237,-7.966881 -3.593782,-7.096337 l -0.013763,0.013763 c -0.852217,0.852217 -4.446016,-6.244102 -3.593799,-7.096319 l 0.018527,-0.018527 c 0.827514,-0.827514 -4.503862,-6.186256 -5.331376,-5.358742 l -0.000000,0.000000 c -0.827514,0.827514 -7.768641,-2.921477 -6.941127,-3.748991 l 0.770317,-0.770317 M 857.001282,662.511387 l -2.748705,2.748705 M 850.847890,690.045015 l -0.876085,0.876085 c -1.168113,1.168113 11.713870,-1.023752 12.881983,-2.191865 l 0.002745,-0.002745 c 1.171773,-1.171773 11.861892,-1.171773 10.690118,0.000000 l 0.000000,-0.000000 c -1.171773,1.171773 9.518345,1.171773 10.690118,0.000000 l -0.000000,0.000000 c 1.171773,-1.171773 11.861892,-1.171773 10.690118,0.000000 l 0.000000,-0.000000 c -1.171773,1.171773 9.518345,1.171773 10.690118,0.000000 l -0.000000,0.000000 c 1.171773,-1.171773 12.884917,-2.194799 11.713144,-1.023025 l -1.023025,1.023025 c -1.171773,1.171773 9.518345,1.171773 10.690118,0.000000 l 0.878830,-0.878830 M 841.606966,720.666175 l -0.762937,0.762937 c -0.827257,0.827257 2.923119,7.766999 3.750375,6.939743 l 0.000000,0.000000 c 0.827257,-0.827257 6.121573,4.568546 5.294316,5.395802 l -0.000202,0.000202 c -0.827525,0.827525 4.466388,6.223731 5.293913,5.396205 l 0.000202,-0.000202 c 0.827794,-0.827794 7.806833,2.883285 6.979039,3.711079 l -0.769407,0.769407 M 853.569179,719.394080 l -1.390794,1.390794 M 932.941173,725.543033 l -17.336501,17.336501 M 859.260989,742.932459 l -16.196002,-16.196002 c -2.534402,-2.534402 1.170340,-9.519778 3.704743,-6.985375 l 0.536438,0.536438 c 1.819152,1.819152 5.013912,-5.676207 3.194760,-7.495358 l -0.488279,-0.488279 c -1.168113,-1.168113 -1.208957,-11.899076 -0.040844,-10.730962 l 0.000105,0.000105 c 1.167973,1.167973 -6.211167,4.478952 -7.379140,3.310978 l -0.000000,0.000000 c -1.167973,-1.167973 -7.169021,3.521097 -6.001048,4.689071 l 1.040892,1.040892 c 1.169327,1.169327 -1.486713,-12.176831 -2.656039,-13.346157 l -0.001015,-0.001015 c -1.167973,-1.167973 6.449237,-4.240882 7.617210,-3.072908 l 0.000000,0.000000 c 1.167973,1.167973 8.547113,-2.143005 7.379140,-3.310978 l -0.000105,-0.000105 c -1.168113,-1.168113 7.362948,-3.327170 8.531061,-2.159057 l 0.002745,0.002745 c 1.171773,1.171773 11.861892,1.171773 10.690118,0.000000 l 0.000000,0.000000 c -1.171773,-1.171773 9.518345,-1.171773 10.690118,0.000000 l -0.000000,-0.000000 c 1.171773,1.171773 11.861892,1.171773 10.690118,0.000000 l 0.000000,0.000000 c -1.171773,-1.171773 9.518345,-1.171773 10.690118,0.000000 l -0.000000,-0.000000 c 1.171773,1.171773 11.861892,1.171773 10.690118,0.000000 l -0.002855,-0.002855 c -1.167967,-1.167967 4.211691,-6.478428 5.379657,-5.310461 l 0.009947,0.009947 c 1.154705,1.154705 8.750051,-1.940067 7.595347,-3.094771 l -0.000000,0.000000 c -1.154705,-1.154705 6.462475,-4.227643 7.617180,-3.072938 l 0.020031,0.020031 c 1.157441,1.157441 1.139463,11.829581 -0.017978,10.672140 l -0.000000,0.000000 c -1.157441,-1.157441 -11.079400,-0.389282 -9.921959,0.768159 l 0.013604,0.013604 c 1.167967,1.167967 -4.148204,-14.838323 -5.316171,-16.006289 l 0.000000,0.000000 c -1.167967,-1.167967 1.190628,-9.499490 2.358595,-8.331523 l 1.115917,1.115917 c 2.655856,2.655856 7.120649,-3.569469 4.464793,-6.225325 l -7.945258,-7.945258 c -2.510429,-2.510429 -6.475332,4.214786 -3.964903,6.725215 l 1.882822,1.882822 M 854.287924,727.269276 l 2.732001,2.732001 M 869.858739,742.840091 l 4.541119,4.541119 c 1.172013,1.172013 13.371502,2.681383 12.199488,1.509370 l -0.185090,-0.185090 c -0.925227,-0.925227 9.363928,-1.326190 10.289154,-0.400964 l 0.000000,0.000000 c 0.925227,0.925227 8.926403,-1.763716 8.001176,-2.688942 l -0.000212,-0.000212 c -0.925509,-0.925509 7.075243,-3.614875 8.000752,-2.689366 l 0.073520,0.073520 c 0.828047,0.828047 7.649971,-3.040148 6.821924,-3.868194 l -0.000163,-0.000163 c -0.827829,-0.827829 4.551345,-6.138774 5.379174,-5.310944 l 0.000163,0.000163 c 0.827612,0.827612 6.206461,-4.483658 5.378848,-5.311270 l -0.620709,-0.620709 M 836.212930,687.814045 l -0.691652,-0.691652 c -0.922203,-0.922203 5.964962,-4.725157 6.887165,-3.802953 l 0.366471,0.366471 c 0.925116,0.925116 8.343609,-2.346509 7.418493,-3.271625 l 0.000000,0.000000 c -0.925116,-0.925116 1.719409,-8.970710 2.644525,-8.045593 l 0.040216,0.040216 c 0.872117,0.872117 -6.661228,4.028891 -7.533344,3.156774 l 0.000000,0.000000 c -0.872117,-0.872117 2.684040,-8.006079 3.556157,-7.133962 l 0.000113,0.000113 c 0.872267,0.872267 7.494221,-3.195897 6.621954,-4.068164 l -0.114121,-0.114121 c -0.827049,-0.827049 2.683611,-8.006507 3.510661,-7.179458 l 0.000000,0.000000 c 0.827049,0.827049 6.164324,-4.525794 5.337275,-5.352844 l -0.000214,-0.000214 c -0.827334,-0.827334 4.910375,-5.779743 5.737709,-4.952409 l 1.054739,1.054739 c 1.037982,1.037982 8.195514,-2.494604 7.157532,-3.532586 l -0.000000,0.000000 c -1.037982,-1.037982 8.868367,-1.821751 9.906349,-0.783769 l 0.100463,0.100463 c 1.171932,1.171932 16.762627,6.072509 15.590695,4.900576 l -4.335095,-4.335095 M 838.921401,679.832398 l -0.691652,-0.691652 c -0.921502,-0.921502 1.787496,-8.902623 2.708997,-7.981121 l 0.070618,0.070618 c 0.827344,0.827344 4.455062,-6.235057 3.627718,-7.062400 l -0.000044,-0.000044 c -0.827285,-0.827285 4.424635,-6.265484 5.251920,-5.438198 l 0.000044,0.000044 c 0.827227,0.827227 6.079059,-4.611060 5.251832,-5.438286 l 0.000000,0.000000 c -0.827227,-0.827227 5.971910,-4.718208 6.799137,-3.890981 l 0.773150,0.773150"
         id="path13" />
    </g>
    <g
       id="g14">
      <path
         d="m 969.81641,589.96094 c -0.48346,6.6e-4 -0.87503,0.39397 -0.875,0.8789 -3e-5,0.48494 0.39154,0.87825 0.875,0.87891 h 7.28906 l 9.65234,4.91797 4.67578,9.68359 v 127.32617 l -4.67187,9.52539 -9.6543,4.83985 h -7.29101 c -0.48346,6.6e-4 -0.87503,0.39397 -0.875,0.8789 -3e-5,0.48494 0.39154,0.87825 0.875,0.87891 h 22.49414 14.99605 22.3731 c 0.4842,4.2e-4 0.877,-0.39321 0.8769,-0.87891 1e-4,-0.48569 -0.3927,-0.87932 -0.8769,-0.8789 h -7.1719 l -9.4473,-4.73828 -4.8789,-9.63282 V 590.83984 c 0,-0.48491 -0.3915,-0.87819 -0.875,-0.8789 h -14.99605 z m 11.1582,1.75781 h 3.4082 l 1.11133,2.30273 z m 5.35547,0 h 5.10351 v 5.32812 l -3.35742,-1.70898 z m 6.85742,0 h 13.2422 v 156.29297 h -13.2422 z m 6.50195,5.88086 c -0.48498,-4.2e-4 -0.87805,0.3944 -0.87695,0.88086 v 142.89062 c -2e-5,0.4857 0.39273,0.87933 0.87695,0.87891 0.48425,4.2e-4 0.87695,-0.39321 0.87695,-0.87891 V 598.48047 c 0,-0.48646 -0.392,-0.88128 -0.87695,-0.88086 z m -10.34961,0.35156 2.09375,1.06836 v 3.26953 z m 18.84176,139.57031 2.2461,4.43164 -2.2461,-1.125 z m -16.74801,0.10547 v 3.20117 l -2.08203,1.04493 z m 0,5.16602 v 5.21875 h -5.09375 l 1.73243,-3.5332 z m 16.74801,0 3.5782,1.79492 1.7343,3.42383 h -5.3125 z m -22.69918,2.98437 -1.0957,2.23438 h -3.35938 z m 28.91208,0.13086 4.1953,2.10352 h -3.1289 z"
         style="baseline-shift:baseline;display:inline;overflow:visible;vector-effect:none;enable-background:accumulate;stop-color:#000000;stop-opacity:1"
         id="path8" />
      <path
         style="fill:none;stroke:#000000;stroke-width:1.0"
         d="M 979.923634,589.960940 l -1.057858,1.057858 c -1.410477,1.410477 5.671367,5.018751 7.081844,3.608275 l 0.327536,-0.327536 c 1.169273,-1.169273 7.204663,3.485455 6.035390,4.654729 l -0.000005,0.000005 c -1.169267,1.169267 6.209643,4.480475 7.378910,3.311208 l 0.001000,-0.001000 c 1.167933,-1.167933 8.783133,1.906985 7.615200,3.074918 l 0.000000,-0.000000 c -1.167933,1.167933 -1.167933,11.858052 0.000000,10.690118 l -0.000000,0.000000 c 1.167933,-1.167933 -6.447267,-4.242852 -7.615200,-3.074918 l -0.001000,0.001000 c -1.169267,1.169267 -8.548177,-2.141942 -7.378910,-3.311208 l 0.220514,-0.220514 c 0.875261,-0.875261 -1.678772,-9.011347 -2.554033,-8.136085 l -0.000000,0.000000 c -0.875261,0.875261 -1.339895,-9.350224 -0.464634,-10.225485 l 0.222459,-0.222459 c 1.171873,-1.171873 11.861992,-1.171873 10.690118,0.000000 l -0.002955,0.002955 c -1.167933,1.167933 5.715706,4.974412 6.883640,3.806479 l 0.875950,-0.875950 M 991.433590,621.211457 l 0.876960,-0.876960 c 1.169267,-1.169267 8.548167,2.141952 7.378900,3.311218 l -0.001000,0.001000 c -1.167933,1.167933 6.449267,4.240852 7.617200,3.072918 l -0.000000,0.000000 c 1.167933,-1.167933 1.167933,9.522185 0.000000,10.690118 l 0.000000,-0.000000 c -1.167933,1.167933 -8.785133,-1.904985 -7.617200,-3.072918 l 0.001000,-0.001000 c 1.169267,-1.169267 -6.209633,-4.480485 -7.378900,-3.311218 l -0.000005,0.000005 c -1.169273,1.169273 -1.169273,11.859392 0.000000,10.690118 l 0.000005,-0.000005 c 1.169267,-1.169267 8.548167,2.141952 7.378900,3.311218 l -0.001000,0.001000 c -1.167933,1.167933 6.449267,4.240852 7.617200,3.072918 l -0.000000,0.000000 c 1.167933,-1.167933 1.167933,9.522185 0.000000,10.690118 l 0.000000,-0.000000 c -1.167933,1.167933 -8.785133,-1.904985 -7.617200,-3.072918 l 0.001000,-0.001000 c 1.169267,-1.169267 -6.209633,-4.480485 -7.378900,-3.311218 l -0.000005,0.000005 c -1.169273,1.169273 -1.169273,11.859392 0.000000,10.690118 l 0.000005,-0.000005 c 1.169267,-1.169267 8.548167,2.141952 7.378900,3.311218 l -0.001000,0.001000 c -1.167933,1.167933 6.449267,4.240852 7.617200,3.072918 l -0.000000,0.000000 c 1.167933,-1.167933 1.167933,9.522185 0.000000,10.690118 l -0.000000,0.000000 c -1.167933,1.167933 -8.785133,-1.904985 -7.617200,-3.072918 l 0.001000,-0.001000 c 1.169267,-1.169267 -6.209633,-4.480485 -7.378900,-3.311218 l -0.000005,0.000005 c -1.169273,1.169273 -1.169273,11.859392 0.000000,10.690118 l 0.000005,-0.000005 c 1.169267,-1.169267 8.548167,2.141952 7.378900,3.311218 l -0.001000,0.001000 c -1.167933,1.167933 6.449267,4.240852 7.617200,3.072918 l -0.000000,0.000000 c 1.167933,-1.167933 1.167933,9.522185 0.000000,10.690118 l 0.000000,-0.000000 c -1.167933,1.167933 -8.785133,-1.904985 -7.617200,-3.072918 l 0.001000,-0.001000 c 1.169267,-1.169267 -6.209633,-4.480485 -7.378900,-3.311218 l -0.000005,0.000005 c -1.169273,1.169273 -1.169273,11.859392 0.000000,10.690118 l 0.000005,-0.000005 c 1.169267,-1.169267 8.548167,2.141952 7.378900,3.311218 l -0.001000,0.001000 c -1.167933,1.167933 6.449267,4.240852 7.617200,3.072918 l -0.000000,0.000000 c 1.167933,-1.167933 1.167933,9.522185 0.000000,10.690118 l 0.000000,-0.000000 c -1.167933,1.167933 -8.785133,-1.904985 -7.617200,-3.072918 l 0.001000,-0.001000 c 1.169267,-1.169267 -6.209633,-4.480485 -7.378900,-3.311218 l -0.000005,0.000005 c -1.169273,1.169273 -1.169273,11.859392 0.000000,10.690118 l 0.000005,-0.000005 c 1.169267,-1.169267 8.548167,2.141952 7.378900,3.311218 l -0.001000,0.001000 c -1.167933,1.167933 6.449267,4.240852 7.617200,3.072918 l 0.224019,-0.224019 c 0.869241,-0.869241 4.162146,6.527972 3.292906,7.397213 l 0.000000,-0.000000 c -0.869241,0.869241 4.689371,6.000747 5.558612,5.131506 l 0.002559,-0.002559 c 0.872652,-0.872652 -6.247079,-4.443040 -7.119731,-3.570387 l -0.000190,0.000190 c -0.872906,0.872906 3.055121,7.634997 3.928027,6.762092 l 1.000869,-1.000869 c 1.167933,-1.167933 -5.719138,-4.970981 -6.887071,-3.803047 l -0.100146,0.100146 c -1.034405,1.034405 -8.449313,-2.240805 -7.414908,-3.275211 l -0.000000,0.000000 c 1.034405,-1.034405 -6.344495,-4.345623 -7.378900,-3.311218 l -0.101151,0.101151 c -1.169273,1.169273 -1.445927,12.136046 -0.276654,10.966772 l 0.138327,-0.138327 c 1.353709,-1.353709 -1.531434,-9.158685 -2.885143,-7.804975 l -4.982240,4.982240 c -1.167392,1.167392 -14.813263,4.123144 -13.645870,2.955752 l -0.000000,0.000000 c 1.167392,-1.167392 11.857511,-1.167392 10.690118,-0.000000 l -0.003361,0.003361 c -1.171873,1.171873 20.208363,1.171873 21.380237,0.000000 l 0.000000,-0.000000 c 1.171873,-1.171873 22.552110,-1.171873 21.380237,0.000000 l -0.878905,0.878905 M 979.923634,749.769530 l -1.055615,-1.055615 c -1.407486,-1.407486 5.713015,-4.977104 7.120501,-3.569617 l 0.302181,0.302181 c 1.169273,1.169273 7.189118,-3.501001 6.019844,-4.670274 l -0.000005,-0.000005 c -1.169267,-1.169267 6.209643,-4.480475 7.378910,-3.311208 l 0.000000,-0.000000 c 1.169267,1.169267 10.453628,-0.236491 9.284361,-1.405757 l -1.668161,-1.668161 c -1.167933,-1.167933 -1.167933,-11.858052 0.000000,-10.690118 l -0.000000,-0.000000 c 1.167933,1.167933 -6.447267,4.242852 -7.615200,3.074918 l -0.001000,-0.001000 c -1.169267,-1.169267 -8.548177,2.141942 -7.378910,3.311208 l 0.221972,0.221972 c 0.873317,0.873317 -1.628207,9.061912 -2.501524,8.188595 l 0.000000,0.000000 c -0.873317,-0.873317 -1.393376,9.296742 -0.520059,10.170059 l 0.223917,0.223917 c 1.171873,1.171873 11.861992,1.171873 10.690118,0.000000 l -0.002955,-0.002955 c -1.167933,-1.167933 5.715706,-4.974412 6.883640,-3.806479 l -0.000000,-0.000000 c 1.167933,1.167933 15.670440,4.980322 14.502507,3.812389 l -1.594285,-1.594285 c -1.171873,-1.171873 -10.270662,0.419457 -9.098788,1.591330 l 0.878905,0.878905 M 991.433590,718.519013 l 0.876960,0.876960 c 1.169267,1.169267 8.548167,-2.141952 7.378900,-3.311218 l -0.001000,-0.001000 c -1.167933,-1.167933 6.449267,-4.240852 7.617200,-3.072918 l -0.000000,-0.000000 c 1.167933,1.167933 1.167933,-9.522185 0.000000,-10.690118 l 0.000000,0.000000 c -1.167933,-1.167933 -8.785133,1.904985 -7.617200,3.072918 l 0.001000,0.001000 c 1.169267,1.169267 -6.209633,4.480485 -7.378900,3.311218 l -0.000005,-0.000005 c -1.169273,-1.169273 -1.169273,-11.859392 0.000000,-10.690118 l 0.000005,0.000005 c 1.169267,1.169267 8.548167,-2.141952 7.378900,-3.311218 l -0.001000,-0.001000 c -1.167933,-1.167933 6.449267,-4.240852 7.617200,-3.072918 l -0.000000,-0.000000 c 1.167933,1.167933 1.167933,-9.522185 0.000000,-10.690118 l 0.000000,0.000000 c -1.167933,-1.167933 -8.785133,1.904985 -7.617200,3.072918 l 0.001000,0.001000 c 1.169267,1.169267 -6.209633,4.480485 -7.378900,3.311218 l -0.000005,-0.000005 c -1.169273,-1.169273 -1.169273,-11.859392 0.000000,-10.690118 l 0.000005,0.000005 c 1.169267,1.169267 8.548167,-2.141952 7.378900,-3.311218 l -0.001000,-0.001000 c -1.167933,-1.167933 6.449267,-4.240852 7.617200,-3.072918 l -0.000000,-0.000000 c 1.167933,1.167933 1.167933,-9.522185 0.000000,-10.690118 l 0.000000,0.000000 c -1.167933,-1.167933 -8.785133,1.904985 -7.617200,3.072918 l 0.001000,0.001000 c 1.169267,1.169267 -6.209633,4.480485 -7.378900,3.311218 l -0.000005,-0.000005 c -1.169273,-1.169273 -1.169273,-11.859392 0.000000,-10.690118 l 0.000005,0.000005 c 1.169267,1.169267 8.548167,-2.141952 7.378900,-3.311218 l -0.001000,-0.001000 c -1.167933,-1.167933 6.449267,-4.240852 7.617200,-3.072918 l -0.000000,-0.000000 c 1.167933,1.167933 1.167933,-9.522185 0.000000,-10.690118 l 0.000000,0.000000 c -1.167933,-1.167933 -8.785133,1.904985 -7.617200,3.072918 l 0.001000,0.001000 c 1.169267,1.169267 -6.209633,4.480485 -7.378900,3.311218 l -0.000005,-0.000005 c -1.169273,-1.169273 -1.169273,-11.859392 0.000000,-10.690118 l 0.000005,0.000005 c 1.169267,1.169267 8.548167,-2.141952 7.378900,-3.311218 l -0.001000,-0.001000 c -1.167933,-1.167933 6.449267,-4.240852 7.617200,-3.072918 l -0.000000,-0.000000 c 1.167933,1.167933 1.167933,-9.522185 0.000000,-10.690118 l 0.000000,0.000000 c -1.167933,-1.167933 -8.785133,1.904985 -7.617200,3.072918 l 0.001000,0.001000 c 1.169267,1.169267 -6.209633,4.480485 -7.378900,3.311218 l -0.000005,-0.000005 c -1.169273,-1.169273 -1.169273,-11.859392 0.000000,-10.690118 l 0.000005,0.000005 c 1.169267,1.169267 8.548167,-2.141952 7.378900,-3.311218 l -0.001000,-0.001000 c -1.167933,-1.167933 6.449267,-4.240852 7.617200,-3.072918 l -0.000000,-0.000000 c 1.167933,1.167933 1.167933,-9.522185 0.000000,-10.690118 l -0.124039,-0.124039 c -1.002548,-1.002548 -8.369670,2.320448 -7.367122,3.322996 l -0.000000,-0.000000 c 1.002548,1.002548 -6.376352,4.313766 -7.378900,3.311218 l -0.125044,-0.125044 c -1.169273,-1.169273 -1.445927,-12.136046 -0.276654,-10.966772 l 0.138327,0.138327 c 1.353709,1.353709 -1.670318,9.019800 -3.024028,7.666091 l -4.749546,-4.749546 c -1.167392,-1.167392 -14.907072,-4.216953 -13.739679,-3.049561 l 0.000000,0.000000 c 1.167392,1.167392 11.857511,1.167392 10.690118,-0.000000 l -0.003361,-0.003361 c -1.171873,-1.171873 20.208363,-1.171873 21.380237,-0.000000 l 0.878905,0.878905"
         id="path14" />
    </g>
    <g
       id="g15">
      <path
         d="m 1059.791,589.96094 c -0.4842,-4.2e-4 -0.877,0.39321 -0.8769,0.8789 -10e-5,0.4857 0.3927,0.87933 0.8769,0.87891 h 7.2871 l 9.6524,4.91797 4.6777,9.68359 v 127.32617 l -4.6738,9.52539 -9.6524,4.83985 h -7.291 c -0.4842,-4.2e-4 -0.877,0.39321 -0.8769,0.8789 -10e-5,0.4857 0.3927,0.87933 0.8769,0.87891 h 22.4922 14.9961 22.375 c 0.4835,-6.6e-4 0.875,-0.39397 0.875,-0.87891 0,-0.48493 -0.3915,-0.87824 -0.875,-0.8789 h -7.1719 l -9.4492,-4.73828 -4.8769,-9.63282 V 590.83984 c -1e-4,-0.48567 -0.3928,-0.87927 -0.877,-0.8789 h -14.9961 z m 11.1563,1.75781 h 3.4082 l 1.1133,2.30273 z m 5.3554,0 h 5.1055 v 5.32812 l -3.3574,-1.70898 z m 6.8575,0 h 13.2421 v 156.29297 h -13.2421 z m 6.5019,5.88086 c -0.485,-4.2e-4 -0.878,0.3944 -0.8769,0.88086 v 142.89062 c -10e-5,0.4857 0.3927,0.87933 0.8769,0.87891 0.4842,4.2e-4 0.877,-0.39321 0.877,-0.87891 V 598.48047 c 0,-0.48646 -0.392,-0.88128 -0.877,-0.88086 z m -10.3496,0.35156 2.0957,1.06836 v 3.26953 z m 18.8438,139.57031 2.2441,4.43164 -2.2441,-1.125 z m -16.7481,0.10547 v 3.20117 l -2.084,1.04493 z m 0,5.16602 v 5.21875 h -5.0957 l 1.7344,-3.5332 z m 16.7481,0 3.5781,1.79492 1.7344,3.42383 h -5.3125 z m -22.7012,2.98437 -1.0957,2.23438 H 1071 Z m 28.914,0.13086 4.1934,2.10352 h -3.1289 z"
         style="baseline-shift:baseline;display:inline;overflow:visible;vector-effect:none;enable-background:accumulate;stop-color:#000000;stop-opacity:1"
         id="path7" />
      <path
         style="fill:none;stroke:#000000;stroke-width:1.0"
         d="M 1069.896326,589.960940 l -1.057867,1.057867 c -1.410490,1.410490 5.671369,5.018750 7.081858,3.608260 l 0.329075,-0.329075 c 1.168000,-1.168000 7.202808,3.487310 6.034808,4.655310 l -0.000000,0.000000 c -1.168000,1.168000 6.209000,4.481118 7.377000,3.313118 l 0.000950,-0.000950 c 1.169267,-1.169267 8.786467,1.903652 7.617200,3.072918 l -0.000050,0.000050 c -1.169333,1.169333 -1.169333,-9.520785 0.000000,-10.690118 l -0.000000,0.000000 c 1.169333,-1.169333 -5.710404,-4.979714 -6.879737,-3.810381 l -0.001905,0.001905 c -1.171873,1.171873 -11.861992,1.171873 -10.690118,0.000000 l 0.222418,-0.222418 c 0.875316,-0.875316 0.895822,9.794297 0.020506,10.669613 l 0.000000,0.000000 c -0.875316,0.875316 1.238908,9.451210 2.114224,8.575894 l 0.219513,-0.219513 c 1.168000,-1.168000 8.546900,2.143218 7.378900,3.311218 l -0.000950,0.000950 c -1.169267,1.169267 6.447833,4.242285 7.617100,3.073018 l 0.000050,-0.000050 c 1.169333,-1.169333 1.169333,9.520785 0.000000,10.690118 l -0.000050,0.000050 c -1.169267,1.169267 -8.786367,-1.903752 -7.617100,-3.073018 l 0.000950,-0.000950 c 1.168000,-1.168000 -6.210900,-4.479218 -7.378900,-3.311218 l -0.000000,0.000000 c -1.168000,1.168000 -1.168000,11.858118 0.000000,10.690118 l 0.000000,0.000000 c 1.168000,-1.168000 8.546900,2.143218 7.378900,3.311218 l -0.000950,0.000950 c -1.169267,1.169267 6.447833,4.242285 7.617100,3.073018 l 0.000050,-0.000050 c 1.169333,-1.169333 1.169333,9.520785 0.000000,10.690118 l -0.000050,0.000050 c -1.169267,1.169267 -8.786367,-1.903752 -7.617100,-3.073018 l 0.000950,-0.000950 c 1.168000,-1.168000 -6.210900,-4.479218 -7.378900,-3.311218 l -0.000000,-0.000000 c -1.168000,1.168000 -1.168000,11.858118 0.000000,10.690118 l 0.000000,-0.000000 c 1.168000,-1.168000 8.546900,2.143218 7.378900,3.311218 l -0.000950,0.000950 c -1.169267,1.169267 6.447833,4.242285 7.617100,3.073018 l 0.000050,-0.000050 c 1.169333,-1.169333 1.169333,9.520785 0.000000,10.690118 l -0.000050,0.000050 c -1.169267,1.169267 -8.786367,-1.903752 -7.617100,-3.073018 l 0.000950,-0.000950 c 1.168000,-1.168000 -6.210900,-4.479218 -7.378900,-3.311218 l -0.000000,0.000000 c -1.168000,1.168000 -1.168000,11.858118 0.000000,10.690118 l 0.000000,0.000000 c 1.168000,-1.168000 8.546900,2.143218 7.378900,3.311218 l -0.000950,0.000950 c -1.169267,1.169267 6.447833,4.242285 7.617100,3.073018 l 0.000050,-0.000050 c 1.169333,-1.169333 1.169333,9.520785 0.000000,10.690118 l -0.000050,0.000050 c -1.169267,1.169267 -8.786367,-1.903752 -7.617100,-3.073018 l 0.000950,-0.000950 c 1.168000,-1.168000 -6.210900,-4.479218 -7.378900,-3.311218 l -0.000000,0.000000 c -1.168000,1.168000 -1.168000,11.858118 0.000000,10.690118 l 0.000000,0.000000 c 1.168000,-1.168000 8.546900,2.143218 7.378900,3.311218 l -0.000950,0.000950 c -1.169267,1.169267 6.447833,4.242285 7.617100,3.073018 l 0.000050,-0.000050 c 1.169333,-1.169333 1.169333,9.520785 0.000000,10.690118 l -0.000050,0.000050 c -1.169267,1.169267 -8.786367,-1.903752 -7.617100,-3.073018 l 0.000950,-0.000950 c 1.168000,-1.168000 -6.210900,-4.479218 -7.378900,-3.311218 l -0.000000,0.000000 c -1.168000,1.168000 -1.168000,11.858118 0.000000,10.690118 l 0.000000,0.000000 c 1.168000,-1.168000 8.546900,2.143218 7.378900,3.311218 l -0.000950,0.000950 c -1.169267,1.169267 6.447833,4.242285 7.617100,3.073018 l 0.000050,-0.000050 c 1.169333,-1.169333 1.169333,9.520785 0.000000,10.690118 l -0.224930,0.224930 c -0.869427,0.869427 2.871767,7.818352 3.741194,6.948924 l 0.000000,0.000000 c 0.869427,-0.869427 6.432990,4.257128 5.563563,5.126556 l -0.002336,0.002336 c -0.872542,0.872542 -7.992421,-2.697697 -7.119879,-3.570239 l 0.000016,-0.000016 c 0.872564,-0.872564 6.023046,4.667073 5.150482,5.539636 l -1.000545,1.000545 c -1.169333,1.169333 -7.276898,-3.413220 -6.107565,-4.582553 l 0.101181,-0.101181 c 1.034425,-1.034425 -6.582775,-4.107343 -7.617200,-3.072918 l 0.000000,-0.000000 c -1.034425,1.034425 -8.613687,-2.076431 -7.579262,-3.110856 l 0.100181,-0.100181 c 1.168000,-1.168000 1.168000,9.522118 0.000000,10.690118 l -0.139286,0.139286 c -1.353714,1.353714 -9.081337,-1.608781 -7.727623,-2.962495 l 4.983422,-4.983422 c 1.168000,-1.168000 4.051487,-14.741605 2.883487,-13.573605 l -0.000000,0.000000 c -1.168000,1.168000 6.209000,4.481118 7.377000,3.313118 l 0.000950,-0.000950 c 1.169267,-1.169267 4.207723,17.172513 3.038457,18.341780 l -0.001955,0.001955 c -1.171873,1.171873 -22.552110,1.171873 -21.380237,0.000000 l 0.003492,-0.003492 c 1.167217,-1.167217 -9.522901,-1.167217 -10.690118,0.000000 l -0.875413,0.875413 M 1113.199983,749.769530 l 1.757810,-1.757810 M 1069.896326,749.769530 l -1.055323,-1.055323 c -1.407097,-1.407097 5.712936,-4.977182 7.120033,-3.570085 l 0.303921,0.303921 c 1.168000,1.168000 7.187242,-3.502876 6.019242,-4.670876 l -0.000000,0.000000 c -1.168000,-1.168000 6.209000,-4.481118 7.377000,-3.313118 l 0.000950,0.000950 c 1.169267,1.169267 10.456300,-0.233818 9.287034,-1.403084 l -1.669884,-1.669884 c -1.169333,-1.169333 -1.169333,9.520785 0.000000,10.690118 l 0.000000,0.000000 c 1.169333,1.169333 -5.710404,4.979714 -6.879737,3.810381 l -0.001905,-0.001905 c -1.171873,-1.171873 -11.861992,-1.171873 -10.690118,-0.000000 l 0.223869,0.223869 c 0.873381,0.873381 0.946417,-9.743701 0.073036,-10.617082 l -0.000000,0.000000 c -0.873381,-0.873381 1.185410,-9.504709 2.058790,-8.631328 l 0.220964,0.220964 c 1.168000,1.168000 8.546900,-2.143218 7.378900,-3.311218 l -0.000950,-0.000950 c -1.169267,-1.169267 6.447833,-4.242285 7.617100,-3.073018 l 0.000050,0.000050 c 1.169333,1.169333 1.169333,-9.520785 0.000000,-10.690118 l -0.000050,-0.000050 c -1.169267,-1.169267 -8.786367,1.903752 -7.617100,3.073018 l 0.000950,0.000950 c 1.168000,1.168000 -6.210900,4.479218 -7.378900,3.311218 l -0.000000,0.000000 c -1.168000,-1.168000 -1.168000,-11.858118 0.000000,-10.690118 l 0.000000,0.000000 c 1.168000,1.168000 8.546900,-2.143218 7.378900,-3.311218 l -0.000950,-0.000950 c -1.169267,-1.169267 6.447833,-4.242285 7.617100,-3.073018 l 0.000050,0.000050 c 1.169333,1.169333 1.169333,-9.520785 0.000000,-10.690118 l -0.000050,-0.000050 c -1.169267,-1.169267 -8.786367,1.903752 -7.617100,3.073018 l 0.000950,0.000950 c 1.168000,1.168000 -6.210900,4.479218 -7.378900,3.311218 l -0.000000,0.000000 c -1.168000,-1.168000 -1.168000,-11.858118 0.000000,-10.690118 l 0.000000,0.000000 c 1.168000,1.168000 8.546900,-2.143218 7.378900,-3.311218 l -0.000950,-0.000950 c -1.169267,-1.169267 6.447833,-4.242285 7.617100,-3.073018 l 0.000050,0.000050 c 1.169333,1.169333 1.169333,-9.520785 0.000000,-10.690118 l -0.000050,-0.000050 c -1.169267,-1.169267 -8.786367,1.903752 -7.617100,3.073018 l 0.000950,0.000950 c 1.168000,1.168000 -6.210900,4.479218 -7.378900,3.311218 l -0.000000,0.000000 c -1.168000,-1.168000 -1.168000,-11.858118 0.000000,-10.690118 l 0.000000,0.000000 c 1.168000,1.168000 8.546900,-2.143218 7.378900,-3.311218 l -0.000950,-0.000950 c -1.169267,-1.169267 6.447833,-4.242285 7.617100,-3.073018 l 0.000050,0.000050 c 1.169333,1.169333 1.169333,-9.520785 0.000000,-10.690118 l -0.000050,-0.000050 c -1.169267,-1.169267 -8.786367,1.903752 -7.617100,3.073018 l 0.000950,0.000950 c 1.168000,1.168000 -6.210900,4.479218 -7.378900,3.311218 l -0.000000,0.000000 c -1.168000,-1.168000 -1.168000,-11.858118 0.000000,-10.690118 l 0.000000,0.000000 c 1.168000,1.168000 8.546900,-2.143218 7.378900,-3.311218 l -0.000950,-0.000950 c -1.169267,-1.169267 6.447833,-4.242285 7.617100,-3.073018 l 0.000050,0.000050 c 1.169333,1.169333 1.169333,-9.520785 0.000000,-10.690118 l -0.000050,-0.000050 c -1.169267,-1.169267 -8.786367,1.903752 -7.617100,3.073018 l 0.000950,0.000950 c 1.168000,1.168000 -6.210900,4.479218 -7.378900,3.311218 l -0.000000,0.000000 c -1.168000,-1.168000 -1.168000,-11.858118 0.000000,-10.690118 l 0.000000,0.000000 c 1.168000,1.168000 8.546900,-2.143218 7.378900,-3.311218 l -0.000950,-0.000950 c -1.169267,-1.169267 6.447833,-4.242285 7.617100,-3.073018 l 0.000050,0.000050 c 1.169333,1.169333 1.169333,-9.520785 0.000000,-10.690118 l -0.000050,-0.000050 c -1.169267,-1.169267 -8.786367,1.903752 -7.617100,3.073018 l 0.000950,0.000950 c 1.168000,1.168000 -6.210900,4.479218 -7.378900,3.311218 l -0.000000,-0.000000 c -1.168000,-1.168000 -1.168000,-11.858118 0.000000,-10.690118 l 0.124078,0.124078 c 1.002563,1.002563 8.381463,-2.308655 7.378900,-3.311218 l -0.000000,0.000000 c -1.002563,-1.002563 6.364481,-4.325637 7.367044,-3.323074 l 0.125078,0.125078 c 1.169333,1.169333 -13.826767,-3.136648 -14.996100,-4.305982 l -0.138286,-0.138286 c -1.353714,-1.353714 -8.988701,1.701418 -7.634986,3.055132 l 4.748753,4.748753 c 1.171873,1.171873 14.611844,-6.768392 13.439971,-7.940266 l -0.000000,-0.000000 c -1.171873,-1.171873 -22.552110,-1.171873 -21.380237,0.000000 l 0.003492,0.003492 c 1.167217,1.167217 -9.522901,1.167217 -10.690118,0.000000 l -0.875413,-0.875413 M 1101.966681,749.769530 l -0.878905,-0.878905 c -1.171873,-1.171873 7.925638,-2.764480 9.097511,-1.592607 l 2.471512,2.471512"
         id="path15" />
    </g>
  </g>
</svg>
